%TF.GenerationSoftware,KiCad,Pcbnew,(6.0.10-0)*%
%TF.CreationDate,2023-01-20T21:59:07-08:00*%
%TF.ProjectId,mains-monitor,6d61696e-732d-46d6-9f6e-69746f722e6b,rev?*%
%TF.SameCoordinates,Original*%
%TF.FileFunction,Drillmap*%
%TF.FilePolarity,Positive*%
%FSLAX45Y45*%
G04 Gerber Fmt 4.5, Leading zero omitted, Abs format (unit mm)*
G04 Created by KiCad (PCBNEW (6.0.10-0)) date 2023-01-20 21:59:07*
%MOMM*%
%LPD*%
G01*
G04 APERTURE LIST*
%ADD10C,0.100000*%
%ADD11C,0.200000*%
%ADD12C,0.040000*%
%ADD13C,0.050000*%
%ADD14C,0.060000*%
%ADD15C,0.080000*%
%ADD16C,0.110000*%
%ADD17C,0.152000*%
%ADD18C,0.320000*%
G04 APERTURE END LIST*
D10*
X8001000Y-2540000D02*
X2413000Y-2540000D01*
X8001000Y-7366000D02*
G75*
G03*
X8382000Y-6985000I0J381000D01*
G01*
X2413000Y-2540000D02*
G75*
G03*
X2032000Y-2921000I0J-381000D01*
G01*
X8382000Y-6985000D02*
X8382000Y-2921000D01*
X2032000Y-6985000D02*
G75*
G03*
X2413000Y-7366000I381000J0D01*
G01*
X8382000Y-2921000D02*
G75*
G03*
X8001000Y-2540000I-381000J0D01*
G01*
X2032000Y-2921000D02*
X2032000Y-6985000D01*
X2413000Y-7366000D02*
X8001000Y-7366000D01*
D11*
D12*
X7244400Y-5364800D02*
X7284400Y-5404800D01*
X7284400Y-5364800D02*
X7244400Y-5404800D01*
D13*
X2234800Y-4965700D02*
G75*
G03*
X2234800Y-4965700I-25000J0D01*
G01*
X2260200Y-5676900D02*
G75*
G03*
X2260200Y-5676900I-25000J0D01*
G01*
X2260200Y-5956300D02*
G75*
G03*
X2260200Y-5956300I-25000J0D01*
G01*
X2285600Y-6667500D02*
G75*
G03*
X2285600Y-6667500I-25000J0D01*
G01*
X2285600Y-6946900D02*
G75*
G03*
X2285600Y-6946900I-25000J0D01*
G01*
X2717400Y-4965700D02*
G75*
G03*
X2717400Y-4965700I-25000J0D01*
G01*
X2742800Y-5956300D02*
G75*
G03*
X2742800Y-5956300I-25000J0D01*
G01*
X2768200Y-6946900D02*
G75*
G03*
X2768200Y-6946900I-25000J0D01*
G01*
X3200000Y-4965700D02*
G75*
G03*
X3200000Y-4965700I-25000J0D01*
G01*
X3200000Y-5448300D02*
G75*
G03*
X3200000Y-5448300I-25000J0D01*
G01*
X3200000Y-5981700D02*
G75*
G03*
X3200000Y-5981700I-25000J0D01*
G01*
X3200000Y-6464300D02*
G75*
G03*
X3200000Y-6464300I-25000J0D01*
G01*
X3200000Y-6946900D02*
G75*
G03*
X3200000Y-6946900I-25000J0D01*
G01*
X3225400Y-2781300D02*
G75*
G03*
X3225400Y-2781300I-25000J0D01*
G01*
X3225400Y-3035300D02*
G75*
G03*
X3225400Y-3035300I-25000J0D01*
G01*
X3225400Y-4381500D02*
G75*
G03*
X3225400Y-4381500I-25000J0D01*
G01*
X3225400Y-4686300D02*
G75*
G03*
X3225400Y-4686300I-25000J0D01*
G01*
X3403200Y-7099300D02*
G75*
G03*
X3403200Y-7099300I-25000J0D01*
G01*
X3657200Y-2781300D02*
G75*
G03*
X3657200Y-2781300I-25000J0D01*
G01*
X3657200Y-3035300D02*
G75*
G03*
X3657200Y-3035300I-25000J0D01*
G01*
X3657200Y-3289300D02*
G75*
G03*
X3657200Y-3289300I-25000J0D01*
G01*
X3657200Y-3543300D02*
G75*
G03*
X3657200Y-3543300I-25000J0D01*
G01*
X3657200Y-3822700D02*
G75*
G03*
X3657200Y-3822700I-25000J0D01*
G01*
X3657200Y-4102100D02*
G75*
G03*
X3657200Y-4102100I-25000J0D01*
G01*
X3657200Y-4381500D02*
G75*
G03*
X3657200Y-4381500I-25000J0D01*
G01*
X3657200Y-4686300D02*
G75*
G03*
X3657200Y-4686300I-25000J0D01*
G01*
X3708000Y-7226300D02*
G75*
G03*
X3708000Y-7226300I-25000J0D01*
G01*
X3784200Y-5067300D02*
G75*
G03*
X3784200Y-5067300I-25000J0D01*
G01*
X3784200Y-6096000D02*
G75*
G03*
X3784200Y-6096000I-25000J0D01*
G01*
X3835000Y-5842000D02*
G75*
G03*
X3835000Y-5842000I-25000J0D01*
G01*
X3835000Y-6858000D02*
G75*
G03*
X3835000Y-6858000I-25000J0D01*
G01*
X3885800Y-5168900D02*
G75*
G03*
X3885800Y-5168900I-25000J0D01*
G01*
X3911200Y-6184900D02*
G75*
G03*
X3911200Y-6184900I-25000J0D01*
G01*
X3987400Y-7150100D02*
G75*
G03*
X3987400Y-7150100I-25000J0D01*
G01*
X4089000Y-2781300D02*
G75*
G03*
X4089000Y-2781300I-25000J0D01*
G01*
X4089000Y-3035300D02*
G75*
G03*
X4089000Y-3035300I-25000J0D01*
G01*
X4089000Y-3289300D02*
G75*
G03*
X4089000Y-3289300I-25000J0D01*
G01*
X4089000Y-3543300D02*
G75*
G03*
X4089000Y-3543300I-25000J0D01*
G01*
X4089000Y-3822700D02*
G75*
G03*
X4089000Y-3822700I-25000J0D01*
G01*
X4089000Y-4102100D02*
G75*
G03*
X4089000Y-4102100I-25000J0D01*
G01*
X4089000Y-4381500D02*
G75*
G03*
X4089000Y-4381500I-25000J0D01*
G01*
X4089000Y-4686300D02*
G75*
G03*
X4089000Y-4686300I-25000J0D01*
G01*
X4089000Y-6540500D02*
G75*
G03*
X4089000Y-6540500I-25000J0D01*
G01*
X4114400Y-5499100D02*
G75*
G03*
X4114400Y-5499100I-25000J0D01*
G01*
X4139800Y-6083300D02*
G75*
G03*
X4139800Y-6083300I-25000J0D01*
G01*
X4165200Y-5803900D02*
G75*
G03*
X4165200Y-5803900I-25000J0D01*
G01*
X4343000Y-6083300D02*
G75*
G03*
X4343000Y-6083300I-25000J0D01*
G01*
X4343000Y-6311900D02*
G75*
G03*
X4343000Y-6311900I-25000J0D01*
G01*
X4520800Y-2781300D02*
G75*
G03*
X4520800Y-2781300I-25000J0D01*
G01*
X4520800Y-3035300D02*
G75*
G03*
X4520800Y-3035300I-25000J0D01*
G01*
X4520800Y-3289300D02*
G75*
G03*
X4520800Y-3289300I-25000J0D01*
G01*
X4520800Y-3543300D02*
G75*
G03*
X4520800Y-3543300I-25000J0D01*
G01*
X4520800Y-3822700D02*
G75*
G03*
X4520800Y-3822700I-25000J0D01*
G01*
X4520800Y-4102100D02*
G75*
G03*
X4520800Y-4102100I-25000J0D01*
G01*
X4520800Y-4381500D02*
G75*
G03*
X4520800Y-4381500I-25000J0D01*
G01*
X4520800Y-4686300D02*
G75*
G03*
X4520800Y-4686300I-25000J0D01*
G01*
X4597000Y-6083300D02*
G75*
G03*
X4597000Y-6083300I-25000J0D01*
G01*
X4622400Y-6515100D02*
G75*
G03*
X4622400Y-6515100I-25000J0D01*
G01*
X4724000Y-5524500D02*
G75*
G03*
X4724000Y-5524500I-25000J0D01*
G01*
X4749400Y-6362700D02*
G75*
G03*
X4749400Y-6362700I-25000J0D01*
G01*
X4800200Y-5295900D02*
G75*
G03*
X4800200Y-5295900I-25000J0D01*
G01*
X4952600Y-2781300D02*
G75*
G03*
X4952600Y-2781300I-25000J0D01*
G01*
X4952600Y-3035300D02*
G75*
G03*
X4952600Y-3035300I-25000J0D01*
G01*
X4952600Y-3289300D02*
G75*
G03*
X4952600Y-3289300I-25000J0D01*
G01*
X4952600Y-3543300D02*
G75*
G03*
X4952600Y-3543300I-25000J0D01*
G01*
X4952600Y-3822700D02*
G75*
G03*
X4952600Y-3822700I-25000J0D01*
G01*
X4952600Y-4102100D02*
G75*
G03*
X4952600Y-4102100I-25000J0D01*
G01*
X4952600Y-4381500D02*
G75*
G03*
X4952600Y-4381500I-25000J0D01*
G01*
X4952600Y-4686300D02*
G75*
G03*
X4952600Y-4686300I-25000J0D01*
G01*
X5003400Y-5930900D02*
G75*
G03*
X5003400Y-5930900I-25000J0D01*
G01*
X5028800Y-5397500D02*
G75*
G03*
X5028800Y-5397500I-25000J0D01*
G01*
X5181200Y-5930900D02*
G75*
G03*
X5181200Y-5930900I-25000J0D01*
G01*
X5206600Y-6769100D02*
G75*
G03*
X5206600Y-6769100I-25000J0D01*
G01*
X5232000Y-5524500D02*
G75*
G03*
X5232000Y-5524500I-25000J0D01*
G01*
X5308200Y-5321300D02*
G75*
G03*
X5308200Y-5321300I-25000J0D01*
G01*
X5384400Y-2781300D02*
G75*
G03*
X5384400Y-2781300I-25000J0D01*
G01*
X5384400Y-3035300D02*
G75*
G03*
X5384400Y-3035300I-25000J0D01*
G01*
X5384400Y-3289300D02*
G75*
G03*
X5384400Y-3289300I-25000J0D01*
G01*
X5384400Y-3543300D02*
G75*
G03*
X5384400Y-3543300I-25000J0D01*
G01*
X5384400Y-3822700D02*
G75*
G03*
X5384400Y-3822700I-25000J0D01*
G01*
X5384400Y-4102100D02*
G75*
G03*
X5384400Y-4102100I-25000J0D01*
G01*
X5384400Y-4381500D02*
G75*
G03*
X5384400Y-4381500I-25000J0D01*
G01*
X5384400Y-4686300D02*
G75*
G03*
X5384400Y-4686300I-25000J0D01*
G01*
X5460600Y-5524500D02*
G75*
G03*
X5460600Y-5524500I-25000J0D01*
G01*
X5486000Y-5854700D02*
G75*
G03*
X5486000Y-5854700I-25000J0D01*
G01*
X5511400Y-6769100D02*
G75*
G03*
X5511400Y-6769100I-25000J0D01*
G01*
X5536800Y-6286500D02*
G75*
G03*
X5536800Y-6286500I-25000J0D01*
G01*
X5587600Y-5397500D02*
G75*
G03*
X5587600Y-5397500I-25000J0D01*
G01*
X5816200Y-3035300D02*
G75*
G03*
X5816200Y-3035300I-25000J0D01*
G01*
X5816200Y-3289300D02*
G75*
G03*
X5816200Y-3289300I-25000J0D01*
G01*
X5816200Y-3543300D02*
G75*
G03*
X5816200Y-3543300I-25000J0D01*
G01*
X5816200Y-3822700D02*
G75*
G03*
X5816200Y-3822700I-25000J0D01*
G01*
X5816200Y-4102100D02*
G75*
G03*
X5816200Y-4102100I-25000J0D01*
G01*
X5816200Y-4381500D02*
G75*
G03*
X5816200Y-4381500I-25000J0D01*
G01*
X5816200Y-4686300D02*
G75*
G03*
X5816200Y-4686300I-25000J0D01*
G01*
X5841600Y-5321300D02*
G75*
G03*
X5841600Y-5321300I-25000J0D01*
G01*
X5867000Y-5499100D02*
G75*
G03*
X5867000Y-5499100I-25000J0D01*
G01*
X5867000Y-6438900D02*
G75*
G03*
X5867000Y-6438900I-25000J0D01*
G01*
X6171800Y-3263900D02*
G75*
G03*
X6171800Y-3263900I-25000J0D01*
G01*
X6171800Y-3543300D02*
G75*
G03*
X6171800Y-3543300I-25000J0D01*
G01*
X6171800Y-3822700D02*
G75*
G03*
X6171800Y-3822700I-25000J0D01*
G01*
X6171800Y-4102100D02*
G75*
G03*
X6171800Y-4102100I-25000J0D01*
G01*
X6171800Y-4381500D02*
G75*
G03*
X6171800Y-4381500I-25000J0D01*
G01*
X6222600Y-6769100D02*
G75*
G03*
X6222600Y-6769100I-25000J0D01*
G01*
X6248000Y-6007100D02*
G75*
G03*
X6248000Y-6007100I-25000J0D01*
G01*
X6248000Y-6235700D02*
G75*
G03*
X6248000Y-6235700I-25000J0D01*
G01*
X6451200Y-3822700D02*
G75*
G03*
X6451200Y-3822700I-25000J0D01*
G01*
X6451200Y-4076700D02*
G75*
G03*
X6451200Y-4076700I-25000J0D01*
G01*
X6451200Y-4356100D02*
G75*
G03*
X6451200Y-4356100I-25000J0D01*
G01*
X6502000Y-6235700D02*
G75*
G03*
X6502000Y-6235700I-25000J0D01*
G01*
X6527400Y-6769100D02*
G75*
G03*
X6527400Y-6769100I-25000J0D01*
G01*
X6578200Y-5334000D02*
G75*
G03*
X6578200Y-5334000I-25000J0D01*
G01*
X6679800Y-5753100D02*
G75*
G03*
X6679800Y-5753100I-25000J0D01*
G01*
X6730600Y-3149600D02*
G75*
G03*
X6730600Y-3149600I-25000J0D01*
G01*
X7111600Y-6616700D02*
G75*
G03*
X7111600Y-6616700I-25000J0D01*
G01*
X7187800Y-5829300D02*
G75*
G03*
X7187800Y-5829300I-25000J0D01*
G01*
X7187800Y-6134100D02*
G75*
G03*
X7187800Y-6134100I-25000J0D01*
G01*
X7264000Y-4381500D02*
G75*
G03*
X7264000Y-4381500I-25000J0D01*
G01*
X7289400Y-3238500D02*
G75*
G03*
X7289400Y-3238500I-25000J0D01*
G01*
X7289400Y-3416300D02*
G75*
G03*
X7289400Y-3416300I-25000J0D01*
G01*
X7365600Y-4076700D02*
G75*
G03*
X7365600Y-4076700I-25000J0D01*
G01*
X7365600Y-6794500D02*
G75*
G03*
X7365600Y-6794500I-25000J0D01*
G01*
X7391000Y-6337300D02*
G75*
G03*
X7391000Y-6337300I-25000J0D01*
G01*
X7416400Y-5981700D02*
G75*
G03*
X7416400Y-5981700I-25000J0D01*
G01*
X7492600Y-3238500D02*
G75*
G03*
X7492600Y-3238500I-25000J0D01*
G01*
X7492600Y-3441700D02*
G75*
G03*
X7492600Y-3441700I-25000J0D01*
G01*
X7594200Y-3924300D02*
G75*
G03*
X7594200Y-3924300I-25000J0D01*
G01*
X7594200Y-4178300D02*
G75*
G03*
X7594200Y-4178300I-25000J0D01*
G01*
X7594200Y-4533900D02*
G75*
G03*
X7594200Y-4533900I-25000J0D01*
G01*
X7670400Y-3441700D02*
G75*
G03*
X7670400Y-3441700I-25000J0D01*
G01*
X7721200Y-6464300D02*
G75*
G03*
X7721200Y-6464300I-25000J0D01*
G01*
X7899000Y-3924300D02*
G75*
G03*
X7899000Y-3924300I-25000J0D01*
G01*
X7899000Y-4178300D02*
G75*
G03*
X7899000Y-4178300I-25000J0D01*
G01*
X7924400Y-4533900D02*
G75*
G03*
X7924400Y-4533900I-25000J0D01*
G01*
X8127600Y-4076700D02*
G75*
G03*
X8127600Y-4076700I-25000J0D01*
G01*
X8229200Y-4381500D02*
G75*
G03*
X8229200Y-4381500I-25000J0D01*
G01*
X2173000Y-4406000D02*
X2173000Y-4456000D01*
X2148000Y-4431000D02*
X2198000Y-4431000D01*
X2243294Y-4236294D02*
X2243294Y-4286294D01*
X2218294Y-4261294D02*
X2268294Y-4261294D01*
X2243294Y-4575706D02*
X2243294Y-4625706D01*
X2218294Y-4600706D02*
X2268294Y-4600706D01*
X2413000Y-4166000D02*
X2413000Y-4216000D01*
X2388000Y-4191000D02*
X2438000Y-4191000D01*
X2413000Y-4646000D02*
X2413000Y-4696000D01*
X2388000Y-4671000D02*
X2438000Y-4671000D01*
X2582706Y-4236294D02*
X2582706Y-4286294D01*
X2557706Y-4261294D02*
X2607706Y-4261294D01*
X2582706Y-4575706D02*
X2582706Y-4625706D01*
X2557706Y-4600706D02*
X2607706Y-4600706D01*
X2653000Y-4406000D02*
X2653000Y-4456000D01*
X2628000Y-4431000D02*
X2678000Y-4431000D01*
X4219000Y-6960000D02*
X4219000Y-7010000D01*
X4194000Y-6985000D02*
X4244000Y-6985000D01*
X4289294Y-6790294D02*
X4289294Y-6840294D01*
X4264294Y-6815294D02*
X4314294Y-6815294D01*
X4289294Y-7129706D02*
X4289294Y-7179706D01*
X4264294Y-7154706D02*
X4314294Y-7154706D01*
X4459000Y-6720000D02*
X4459000Y-6770000D01*
X4434000Y-6745000D02*
X4484000Y-6745000D01*
X4459000Y-7200000D02*
X4459000Y-7250000D01*
X4434000Y-7225000D02*
X4484000Y-7225000D01*
X4628706Y-6790294D02*
X4628706Y-6840294D01*
X4603706Y-6815294D02*
X4653706Y-6815294D01*
X4628706Y-7129706D02*
X4628706Y-7179706D01*
X4603706Y-7154706D02*
X4653706Y-7154706D01*
X4699000Y-6960000D02*
X4699000Y-7010000D01*
X4674000Y-6985000D02*
X4724000Y-6985000D01*
X7761000Y-2896000D02*
X7761000Y-2946000D01*
X7736000Y-2921000D02*
X7786000Y-2921000D01*
X7761000Y-6960000D02*
X7761000Y-7010000D01*
X7736000Y-6985000D02*
X7786000Y-6985000D01*
X7831294Y-2726294D02*
X7831294Y-2776294D01*
X7806294Y-2751294D02*
X7856294Y-2751294D01*
X7831294Y-3065706D02*
X7831294Y-3115706D01*
X7806294Y-3090706D02*
X7856294Y-3090706D01*
X7831294Y-6790294D02*
X7831294Y-6840294D01*
X7806294Y-6815294D02*
X7856294Y-6815294D01*
X7831294Y-7129706D02*
X7831294Y-7179706D01*
X7806294Y-7154706D02*
X7856294Y-7154706D01*
X8001000Y-2656000D02*
X8001000Y-2706000D01*
X7976000Y-2681000D02*
X8026000Y-2681000D01*
X8001000Y-3136000D02*
X8001000Y-3186000D01*
X7976000Y-3161000D02*
X8026000Y-3161000D01*
X8001000Y-6720000D02*
X8001000Y-6770000D01*
X7976000Y-6745000D02*
X8026000Y-6745000D01*
X8001000Y-7200000D02*
X8001000Y-7250000D01*
X7976000Y-7225000D02*
X8026000Y-7225000D01*
X8170706Y-2726294D02*
X8170706Y-2776294D01*
X8145706Y-2751294D02*
X8195706Y-2751294D01*
X8170706Y-3065706D02*
X8170706Y-3115706D01*
X8145706Y-3090706D02*
X8195706Y-3090706D01*
X8170706Y-6790294D02*
X8170706Y-6840294D01*
X8145706Y-6815294D02*
X8195706Y-6815294D01*
X8170706Y-7129706D02*
X8170706Y-7179706D01*
X8145706Y-7154706D02*
X8195706Y-7154706D01*
X8241000Y-2896000D02*
X8241000Y-2946000D01*
X8216000Y-2921000D02*
X8266000Y-2921000D01*
X8241000Y-6960000D02*
X8241000Y-7010000D01*
X8216000Y-6985000D02*
X8266000Y-6985000D01*
D14*
X2381213Y-5242213D02*
X2381213Y-5199787D01*
X2338787Y-5199787D01*
X2338787Y-5242213D01*
X2381213Y-5242213D01*
D11*
X2330000Y-5251000D02*
X2390000Y-5251000D01*
X2330000Y-5191000D02*
X2390000Y-5191000D01*
X2390000Y-5251000D02*
G75*
G03*
X2390000Y-5191000I0J30000D01*
G01*
X2330000Y-5191000D02*
G75*
G03*
X2330000Y-5251000I0J-30000D01*
G01*
D14*
X2381213Y-6258213D02*
X2381213Y-6215787D01*
X2338787Y-6215787D01*
X2338787Y-6258213D01*
X2381213Y-6258213D01*
D11*
X2330000Y-6267000D02*
X2390000Y-6267000D01*
X2330000Y-6207000D02*
X2390000Y-6207000D01*
X2390000Y-6267000D02*
G75*
G03*
X2390000Y-6207000I0J30000D01*
G01*
X2330000Y-6207000D02*
G75*
G03*
X2330000Y-6267000I0J-30000D01*
G01*
D14*
X2681213Y-5242213D02*
X2681213Y-5199787D01*
X2638787Y-5199787D01*
X2638787Y-5242213D01*
X2681213Y-5242213D01*
D11*
X2630000Y-5251000D02*
X2690000Y-5251000D01*
X2630000Y-5191000D02*
X2690000Y-5191000D01*
X2690000Y-5251000D02*
G75*
G03*
X2690000Y-5191000I0J30000D01*
G01*
X2630000Y-5191000D02*
G75*
G03*
X2630000Y-5251000I0J-30000D01*
G01*
D14*
X2681213Y-6258213D02*
X2681213Y-6215787D01*
X2638787Y-6215787D01*
X2638787Y-6258213D01*
X2681213Y-6258213D01*
D11*
X2630000Y-6267000D02*
X2690000Y-6267000D01*
X2630000Y-6207000D02*
X2690000Y-6207000D01*
X2690000Y-6267000D02*
G75*
G03*
X2690000Y-6207000I0J30000D01*
G01*
X2630000Y-6207000D02*
G75*
G03*
X2630000Y-6267000I0J-30000D01*
G01*
D14*
X3081213Y-5242213D02*
X3081213Y-5199787D01*
X3038787Y-5199787D01*
X3038787Y-5242213D01*
X3081213Y-5242213D01*
D11*
X3030000Y-5251000D02*
X3090000Y-5251000D01*
X3030000Y-5191000D02*
X3090000Y-5191000D01*
X3090000Y-5251000D02*
G75*
G03*
X3090000Y-5191000I0J30000D01*
G01*
X3030000Y-5191000D02*
G75*
G03*
X3030000Y-5251000I0J-30000D01*
G01*
D14*
X3081213Y-6258213D02*
X3081213Y-6215787D01*
X3038787Y-6215787D01*
X3038787Y-6258213D01*
X3081213Y-6258213D01*
D11*
X3030000Y-6267000D02*
X3090000Y-6267000D01*
X3030000Y-6207000D02*
X3090000Y-6207000D01*
X3090000Y-6267000D02*
G75*
G03*
X3090000Y-6207000I0J30000D01*
G01*
X3030000Y-6207000D02*
G75*
G03*
X3030000Y-6267000I0J-30000D01*
G01*
D14*
X3201213Y-5722213D02*
X3201213Y-5679787D01*
X3158787Y-5679787D01*
X3158787Y-5722213D01*
X3201213Y-5722213D01*
D11*
X3150000Y-5731000D02*
X3210000Y-5731000D01*
X3150000Y-5671000D02*
X3210000Y-5671000D01*
X3210000Y-5731000D02*
G75*
G03*
X3210000Y-5671000I0J30000D01*
G01*
X3150000Y-5671000D02*
G75*
G03*
X3150000Y-5731000I0J-30000D01*
G01*
D14*
X3201213Y-6738213D02*
X3201213Y-6695787D01*
X3158787Y-6695787D01*
X3158787Y-6738213D01*
X3201213Y-6738213D01*
D11*
X3150000Y-6747000D02*
X3210000Y-6747000D01*
X3150000Y-6687000D02*
X3210000Y-6687000D01*
X3210000Y-6747000D02*
G75*
G03*
X3210000Y-6687000I0J30000D01*
G01*
X3150000Y-6687000D02*
G75*
G03*
X3150000Y-6747000I0J-30000D01*
G01*
D15*
X4316500Y-4994000D02*
X4356500Y-4954000D01*
X4316500Y-4914000D01*
X4276500Y-4954000D01*
X4316500Y-4994000D01*
X4316500Y-5756000D02*
X4356500Y-5716000D01*
X4316500Y-5676000D01*
X4276500Y-5716000D01*
X4316500Y-5756000D01*
X4570500Y-4994000D02*
X4610500Y-4954000D01*
X4570500Y-4914000D01*
X4530500Y-4954000D01*
X4570500Y-4994000D01*
X4570500Y-5756000D02*
X4610500Y-5716000D01*
X4570500Y-5676000D01*
X4530500Y-5716000D01*
X4570500Y-5756000D01*
X4824500Y-4994000D02*
X4864500Y-4954000D01*
X4824500Y-4914000D01*
X4784500Y-4954000D01*
X4824500Y-4994000D01*
X4824500Y-5756000D02*
X4864500Y-5716000D01*
X4824500Y-5676000D01*
X4784500Y-5716000D01*
X4824500Y-5756000D01*
X4953000Y-6263000D02*
X4993000Y-6223000D01*
X4953000Y-6183000D01*
X4913000Y-6223000D01*
X4953000Y-6263000D01*
X5078500Y-4994000D02*
X5118500Y-4954000D01*
X5078500Y-4914000D01*
X5038500Y-4954000D01*
X5078500Y-4994000D01*
X5078500Y-5756000D02*
X5118500Y-5716000D01*
X5078500Y-5676000D01*
X5038500Y-5716000D01*
X5078500Y-5756000D01*
X5332500Y-4994000D02*
X5372500Y-4954000D01*
X5332500Y-4914000D01*
X5292500Y-4954000D01*
X5332500Y-4994000D01*
X5332500Y-5756000D02*
X5372500Y-5716000D01*
X5332500Y-5676000D01*
X5292500Y-5716000D01*
X5332500Y-5756000D01*
X5586500Y-4994000D02*
X5626500Y-4954000D01*
X5586500Y-4914000D01*
X5546500Y-4954000D01*
X5586500Y-4994000D01*
X5586500Y-5756000D02*
X5626500Y-5716000D01*
X5586500Y-5676000D01*
X5546500Y-5716000D01*
X5586500Y-5756000D01*
X5715000Y-6263000D02*
X5755000Y-6223000D01*
X5715000Y-6183000D01*
X5675000Y-6223000D01*
X5715000Y-6263000D01*
X5840500Y-4994000D02*
X5880500Y-4954000D01*
X5840500Y-4914000D01*
X5800500Y-4954000D01*
X5840500Y-4994000D01*
X5840500Y-5756000D02*
X5880500Y-5716000D01*
X5840500Y-5676000D01*
X5800500Y-5716000D01*
X5840500Y-5756000D01*
X5969000Y-6263000D02*
X6009000Y-6223000D01*
X5969000Y-6183000D01*
X5929000Y-6223000D01*
X5969000Y-6263000D01*
X6094500Y-4994000D02*
X6134500Y-4954000D01*
X6094500Y-4914000D01*
X6054500Y-4954000D01*
X6094500Y-4994000D01*
X6094500Y-5756000D02*
X6134500Y-5716000D01*
X6094500Y-5676000D01*
X6054500Y-5716000D01*
X6094500Y-5756000D01*
X6731000Y-2961000D02*
X6771000Y-2921000D01*
X6731000Y-2881000D01*
X6691000Y-2921000D01*
X6731000Y-2961000D01*
X6731000Y-6263000D02*
X6771000Y-6223000D01*
X6731000Y-6183000D01*
X6691000Y-6223000D01*
X6731000Y-6263000D01*
X6985000Y-5945500D02*
X7025000Y-5905500D01*
X6985000Y-5865500D01*
X6945000Y-5905500D01*
X6985000Y-5945500D01*
X6985000Y-6263000D02*
X7025000Y-6223000D01*
X6985000Y-6183000D01*
X6945000Y-6223000D01*
X6985000Y-6263000D01*
X7493000Y-2961000D02*
X7533000Y-2921000D01*
X7493000Y-2881000D01*
X7453000Y-2921000D01*
X7493000Y-2961000D01*
X7747000Y-5945500D02*
X7787000Y-5905500D01*
X7747000Y-5865500D01*
X7707000Y-5905500D01*
X7747000Y-5945500D01*
X7747000Y-6263000D02*
X7787000Y-6223000D01*
X7747000Y-6183000D01*
X7707000Y-6223000D01*
X7747000Y-6263000D01*
D10*
X3319750Y-3510000D02*
X3419750Y-3610000D01*
X3419750Y-3510000D02*
X3319750Y-3610000D01*
X3419750Y-3560000D02*
G75*
G03*
X3419750Y-3560000I-50000J0D01*
G01*
X3319750Y-4010000D02*
X3419750Y-4110000D01*
X3419750Y-4010000D02*
X3319750Y-4110000D01*
X3419750Y-4060000D02*
G75*
G03*
X3419750Y-4060000I-50000J0D01*
G01*
X6259750Y-2990000D02*
X6359750Y-3090000D01*
X6359750Y-2990000D02*
X6259750Y-3090000D01*
X6359750Y-3040000D02*
G75*
G03*
X6359750Y-3040000I-50000J0D01*
G01*
X6259750Y-4530000D02*
X6359750Y-4630000D01*
X6359750Y-4530000D02*
X6259750Y-4630000D01*
X6359750Y-4580000D02*
G75*
G03*
X6359750Y-4580000I-50000J0D01*
G01*
X6869000Y-5530500D02*
X6969000Y-5630500D01*
X6969000Y-5530500D02*
X6869000Y-5630500D01*
X6969000Y-5580500D02*
G75*
G03*
X6969000Y-5580500I-50000J0D01*
G01*
X7123000Y-5530500D02*
X7223000Y-5630500D01*
X7223000Y-5530500D02*
X7123000Y-5630500D01*
X7223000Y-5580500D02*
G75*
G03*
X7223000Y-5580500I-50000J0D01*
G01*
X7377000Y-5530500D02*
X7477000Y-5630500D01*
X7477000Y-5530500D02*
X7377000Y-5630500D01*
X7477000Y-5580500D02*
G75*
G03*
X7477000Y-5580500I-50000J0D01*
G01*
X7631000Y-5530500D02*
X7731000Y-5630500D01*
X7731000Y-5530500D02*
X7631000Y-5630500D01*
X7731000Y-5580500D02*
G75*
G03*
X7731000Y-5580500I-50000J0D01*
G01*
X7885000Y-5530500D02*
X7985000Y-5630500D01*
X7985000Y-5530500D02*
X7885000Y-5630500D01*
X7985000Y-5580500D02*
G75*
G03*
X7985000Y-5580500I-50000J0D01*
G01*
X8139000Y-5530500D02*
X8239000Y-5630500D01*
X8239000Y-5530500D02*
X8139000Y-5630500D01*
X8239000Y-5580500D02*
G75*
G03*
X8239000Y-5580500I-50000J0D01*
G01*
D16*
X4954000Y-6578000D02*
X5064000Y-6688000D01*
X5064000Y-6578000D02*
X4954000Y-6688000D01*
X5009000Y-6578000D02*
X5009000Y-6688000D01*
X4954000Y-6633000D02*
X5064000Y-6633000D01*
X4954000Y-7028000D02*
X5064000Y-7138000D01*
X5064000Y-7028000D02*
X4954000Y-7138000D01*
X5009000Y-7028000D02*
X5009000Y-7138000D01*
X4954000Y-7083000D02*
X5064000Y-7083000D01*
X5604000Y-6578000D02*
X5714000Y-6688000D01*
X5714000Y-6578000D02*
X5604000Y-6688000D01*
X5659000Y-6578000D02*
X5659000Y-6688000D01*
X5604000Y-6633000D02*
X5714000Y-6633000D01*
X5604000Y-7028000D02*
X5714000Y-7138000D01*
X5714000Y-7028000D02*
X5604000Y-7138000D01*
X5659000Y-7028000D02*
X5659000Y-7138000D01*
X5604000Y-7083000D02*
X5714000Y-7083000D01*
X5970000Y-6578000D02*
X6080000Y-6688000D01*
X6080000Y-6578000D02*
X5970000Y-6688000D01*
X6025000Y-6578000D02*
X6025000Y-6688000D01*
X5970000Y-6633000D02*
X6080000Y-6633000D01*
X5970000Y-7028000D02*
X6080000Y-7138000D01*
X6080000Y-7028000D02*
X5970000Y-7138000D01*
X6025000Y-7028000D02*
X6025000Y-7138000D01*
X5970000Y-7083000D02*
X6080000Y-7083000D01*
X6620000Y-6578000D02*
X6730000Y-6688000D01*
X6730000Y-6578000D02*
X6620000Y-6688000D01*
X6675000Y-6578000D02*
X6675000Y-6688000D01*
X6620000Y-6633000D02*
X6730000Y-6633000D01*
X6620000Y-7028000D02*
X6730000Y-7138000D01*
X6730000Y-7028000D02*
X6620000Y-7138000D01*
X6675000Y-7028000D02*
X6675000Y-7138000D01*
X6620000Y-7083000D02*
X6730000Y-7083000D01*
D17*
X2400500Y-3099000D02*
X2552500Y-3251000D01*
X2552500Y-3099000D02*
X2400500Y-3251000D01*
X2530241Y-3228741D02*
X2530241Y-3121259D01*
X2422759Y-3121259D01*
X2422759Y-3228741D01*
X2530241Y-3228741D01*
X2400500Y-3607000D02*
X2552500Y-3759000D01*
X2552500Y-3607000D02*
X2400500Y-3759000D01*
X2530241Y-3736741D02*
X2530241Y-3629259D01*
X2422759Y-3629259D01*
X2422759Y-3736741D01*
X2530241Y-3736741D01*
D18*
X2253000Y-4271000D02*
X2573000Y-4591000D01*
X2573000Y-4271000D02*
X2253000Y-4591000D01*
X2413000Y-4591000D02*
X2573000Y-4431000D01*
X2413000Y-4271000D01*
X2253000Y-4431000D01*
X2413000Y-4591000D01*
X4299000Y-6825000D02*
X4619000Y-7145000D01*
X4619000Y-6825000D02*
X4299000Y-7145000D01*
X4459000Y-7145000D02*
X4619000Y-6985000D01*
X4459000Y-6825000D01*
X4299000Y-6985000D01*
X4459000Y-7145000D01*
X7841000Y-2761000D02*
X8161000Y-3081000D01*
X8161000Y-2761000D02*
X7841000Y-3081000D01*
X8001000Y-3081000D02*
X8161000Y-2921000D01*
X8001000Y-2761000D01*
X7841000Y-2921000D01*
X8001000Y-3081000D01*
X7841000Y-6825000D02*
X8161000Y-7145000D01*
X8161000Y-6825000D02*
X7841000Y-7145000D01*
X8001000Y-7145000D02*
X8161000Y-6985000D01*
X8001000Y-6825000D01*
X7841000Y-6985000D01*
X8001000Y-7145000D01*
D11*
X2284619Y-7681476D02*
X2284619Y-7481476D01*
X2332238Y-7481476D01*
X2360810Y-7491000D01*
X2379857Y-7510048D01*
X2389381Y-7529095D01*
X2398905Y-7567190D01*
X2398905Y-7595762D01*
X2389381Y-7633857D01*
X2379857Y-7652905D01*
X2360810Y-7671952D01*
X2332238Y-7681476D01*
X2284619Y-7681476D01*
X2484619Y-7681476D02*
X2484619Y-7548143D01*
X2484619Y-7586238D02*
X2494143Y-7567190D01*
X2503667Y-7557667D01*
X2522714Y-7548143D01*
X2541762Y-7548143D01*
X2608429Y-7681476D02*
X2608429Y-7548143D01*
X2608429Y-7481476D02*
X2598905Y-7491000D01*
X2608429Y-7500524D01*
X2617952Y-7491000D01*
X2608429Y-7481476D01*
X2608429Y-7500524D01*
X2732238Y-7681476D02*
X2713190Y-7671952D01*
X2703667Y-7652905D01*
X2703667Y-7481476D01*
X2837000Y-7681476D02*
X2817952Y-7671952D01*
X2808428Y-7652905D01*
X2808428Y-7481476D01*
X3065571Y-7681476D02*
X3065571Y-7481476D01*
X3132238Y-7624333D01*
X3198905Y-7481476D01*
X3198905Y-7681476D01*
X3379857Y-7681476D02*
X3379857Y-7576714D01*
X3370333Y-7557667D01*
X3351286Y-7548143D01*
X3313190Y-7548143D01*
X3294143Y-7557667D01*
X3379857Y-7671952D02*
X3360809Y-7681476D01*
X3313190Y-7681476D01*
X3294143Y-7671952D01*
X3284619Y-7652905D01*
X3284619Y-7633857D01*
X3294143Y-7614809D01*
X3313190Y-7605286D01*
X3360809Y-7605286D01*
X3379857Y-7595762D01*
X3475095Y-7548143D02*
X3475095Y-7748143D01*
X3475095Y-7557667D02*
X3494143Y-7548143D01*
X3532238Y-7548143D01*
X3551286Y-7557667D01*
X3560809Y-7567190D01*
X3570333Y-7586238D01*
X3570333Y-7643381D01*
X3560809Y-7662428D01*
X3551286Y-7671952D01*
X3532238Y-7681476D01*
X3494143Y-7681476D01*
X3475095Y-7671952D01*
X3656048Y-7662428D02*
X3665571Y-7671952D01*
X3656048Y-7681476D01*
X3646524Y-7671952D01*
X3656048Y-7662428D01*
X3656048Y-7681476D01*
X3656048Y-7557667D02*
X3665571Y-7567190D01*
X3656048Y-7576714D01*
X3646524Y-7567190D01*
X3656048Y-7557667D01*
X3656048Y-7576714D01*
D12*
X1987000Y-7991000D02*
X2027000Y-8031000D01*
X2027000Y-7991000D02*
X1987000Y-8031000D01*
D11*
X2322714Y-7901476D02*
X2341762Y-7901476D01*
X2360810Y-7911000D01*
X2370333Y-7920524D01*
X2379857Y-7939571D01*
X2389381Y-7977667D01*
X2389381Y-8025286D01*
X2379857Y-8063381D01*
X2370333Y-8082428D01*
X2360810Y-8091952D01*
X2341762Y-8101476D01*
X2322714Y-8101476D01*
X2303667Y-8091952D01*
X2294143Y-8082428D01*
X2284619Y-8063381D01*
X2275095Y-8025286D01*
X2275095Y-7977667D01*
X2284619Y-7939571D01*
X2294143Y-7920524D01*
X2303667Y-7911000D01*
X2322714Y-7901476D01*
X2475095Y-8082428D02*
X2484619Y-8091952D01*
X2475095Y-8101476D01*
X2465571Y-8091952D01*
X2475095Y-8082428D01*
X2475095Y-8101476D01*
X2656048Y-7968143D02*
X2656048Y-8101476D01*
X2608429Y-7891952D02*
X2560810Y-8034809D01*
X2684619Y-8034809D01*
X2798905Y-7901476D02*
X2817952Y-7901476D01*
X2837000Y-7911000D01*
X2846524Y-7920524D01*
X2856048Y-7939571D01*
X2865571Y-7977667D01*
X2865571Y-8025286D01*
X2856048Y-8063381D01*
X2846524Y-8082428D01*
X2837000Y-8091952D01*
X2817952Y-8101476D01*
X2798905Y-8101476D01*
X2779857Y-8091952D01*
X2770333Y-8082428D01*
X2760810Y-8063381D01*
X2751286Y-8025286D01*
X2751286Y-7977667D01*
X2760810Y-7939571D01*
X2770333Y-7920524D01*
X2779857Y-7911000D01*
X2798905Y-7901476D01*
X2989381Y-7901476D02*
X3008428Y-7901476D01*
X3027476Y-7911000D01*
X3037000Y-7920524D01*
X3046524Y-7939571D01*
X3056048Y-7977667D01*
X3056048Y-8025286D01*
X3046524Y-8063381D01*
X3037000Y-8082428D01*
X3027476Y-8091952D01*
X3008428Y-8101476D01*
X2989381Y-8101476D01*
X2970333Y-8091952D01*
X2960809Y-8082428D01*
X2951286Y-8063381D01*
X2941762Y-8025286D01*
X2941762Y-7977667D01*
X2951286Y-7939571D01*
X2960809Y-7920524D01*
X2970333Y-7911000D01*
X2989381Y-7901476D01*
X3141762Y-8101476D02*
X3141762Y-7968143D01*
X3141762Y-7987190D02*
X3151286Y-7977667D01*
X3170333Y-7968143D01*
X3198905Y-7968143D01*
X3217952Y-7977667D01*
X3227476Y-7996714D01*
X3227476Y-8101476D01*
X3227476Y-7996714D02*
X3237000Y-7977667D01*
X3256048Y-7968143D01*
X3284619Y-7968143D01*
X3303667Y-7977667D01*
X3313190Y-7996714D01*
X3313190Y-8101476D01*
X3408428Y-8101476D02*
X3408428Y-7968143D01*
X3408428Y-7987190D02*
X3417952Y-7977667D01*
X3437000Y-7968143D01*
X3465571Y-7968143D01*
X3484619Y-7977667D01*
X3494143Y-7996714D01*
X3494143Y-8101476D01*
X3494143Y-7996714D02*
X3503667Y-7977667D01*
X3522714Y-7968143D01*
X3551286Y-7968143D01*
X3570333Y-7977667D01*
X3579857Y-7996714D01*
X3579857Y-8101476D01*
X3970333Y-7891952D02*
X3798905Y-8149095D01*
X4227476Y-7901476D02*
X4246524Y-7901476D01*
X4265571Y-7911000D01*
X4275095Y-7920524D01*
X4284619Y-7939571D01*
X4294143Y-7977667D01*
X4294143Y-8025286D01*
X4284619Y-8063381D01*
X4275095Y-8082428D01*
X4265571Y-8091952D01*
X4246524Y-8101476D01*
X4227476Y-8101476D01*
X4208429Y-8091952D01*
X4198905Y-8082428D01*
X4189381Y-8063381D01*
X4179857Y-8025286D01*
X4179857Y-7977667D01*
X4189381Y-7939571D01*
X4198905Y-7920524D01*
X4208429Y-7911000D01*
X4227476Y-7901476D01*
X4379857Y-8082428D02*
X4389381Y-8091952D01*
X4379857Y-8101476D01*
X4370333Y-8091952D01*
X4379857Y-8082428D01*
X4379857Y-8101476D01*
X4513190Y-7901476D02*
X4532238Y-7901476D01*
X4551286Y-7911000D01*
X4560810Y-7920524D01*
X4570333Y-7939571D01*
X4579857Y-7977667D01*
X4579857Y-8025286D01*
X4570333Y-8063381D01*
X4560810Y-8082428D01*
X4551286Y-8091952D01*
X4532238Y-8101476D01*
X4513190Y-8101476D01*
X4494143Y-8091952D01*
X4484619Y-8082428D01*
X4475095Y-8063381D01*
X4465571Y-8025286D01*
X4465571Y-7977667D01*
X4475095Y-7939571D01*
X4484619Y-7920524D01*
X4494143Y-7911000D01*
X4513190Y-7901476D01*
X4770333Y-8101476D02*
X4656048Y-8101476D01*
X4713190Y-8101476D02*
X4713190Y-7901476D01*
X4694143Y-7930048D01*
X4675095Y-7949095D01*
X4656048Y-7958619D01*
X4951286Y-7901476D02*
X4856048Y-7901476D01*
X4846524Y-7996714D01*
X4856048Y-7987190D01*
X4875095Y-7977667D01*
X4922714Y-7977667D01*
X4941762Y-7987190D01*
X4951286Y-7996714D01*
X4960810Y-8015762D01*
X4960810Y-8063381D01*
X4951286Y-8082428D01*
X4941762Y-8091952D01*
X4922714Y-8101476D01*
X4875095Y-8101476D01*
X4856048Y-8091952D01*
X4846524Y-8082428D01*
X5027476Y-7901476D02*
X5160810Y-7901476D01*
X5075095Y-8101476D01*
X5227476Y-7901476D02*
X5227476Y-7939571D01*
X5303667Y-7901476D02*
X5303667Y-7939571D01*
X5598905Y-8177667D02*
X5589381Y-8168143D01*
X5570333Y-8139571D01*
X5560810Y-8120524D01*
X5551286Y-8091952D01*
X5541762Y-8044333D01*
X5541762Y-8006238D01*
X5551286Y-7958619D01*
X5560810Y-7930048D01*
X5570333Y-7911000D01*
X5589381Y-7882428D01*
X5598905Y-7872905D01*
X5779857Y-8101476D02*
X5665571Y-8101476D01*
X5722714Y-8101476D02*
X5722714Y-7901476D01*
X5703667Y-7930048D01*
X5684619Y-7949095D01*
X5665571Y-7958619D01*
X6017952Y-8101476D02*
X6017952Y-7901476D01*
X6103667Y-8101476D02*
X6103667Y-7996714D01*
X6094143Y-7977667D01*
X6075095Y-7968143D01*
X6046524Y-7968143D01*
X6027476Y-7977667D01*
X6017952Y-7987190D01*
X6227476Y-8101476D02*
X6208428Y-8091952D01*
X6198905Y-8082428D01*
X6189381Y-8063381D01*
X6189381Y-8006238D01*
X6198905Y-7987190D01*
X6208428Y-7977667D01*
X6227476Y-7968143D01*
X6256048Y-7968143D01*
X6275095Y-7977667D01*
X6284619Y-7987190D01*
X6294143Y-8006238D01*
X6294143Y-8063381D01*
X6284619Y-8082428D01*
X6275095Y-8091952D01*
X6256048Y-8101476D01*
X6227476Y-8101476D01*
X6408428Y-8101476D02*
X6389381Y-8091952D01*
X6379857Y-8072905D01*
X6379857Y-7901476D01*
X6560809Y-8091952D02*
X6541762Y-8101476D01*
X6503667Y-8101476D01*
X6484619Y-8091952D01*
X6475095Y-8072905D01*
X6475095Y-7996714D01*
X6484619Y-7977667D01*
X6503667Y-7968143D01*
X6541762Y-7968143D01*
X6560809Y-7977667D01*
X6570333Y-7996714D01*
X6570333Y-8015762D01*
X6475095Y-8034809D01*
X6637000Y-8177667D02*
X6646524Y-8168143D01*
X6665571Y-8139571D01*
X6675095Y-8120524D01*
X6684619Y-8091952D01*
X6694143Y-8044333D01*
X6694143Y-8006238D01*
X6684619Y-7958619D01*
X6675095Y-7930048D01*
X6665571Y-7911000D01*
X6646524Y-7882428D01*
X6637000Y-7872905D01*
D13*
X2027000Y-8275000D02*
G75*
G03*
X2027000Y-8275000I-25000J0D01*
G01*
D11*
X2322714Y-8165476D02*
X2341762Y-8165476D01*
X2360810Y-8175000D01*
X2370333Y-8184524D01*
X2379857Y-8203571D01*
X2389381Y-8241667D01*
X2389381Y-8289286D01*
X2379857Y-8327381D01*
X2370333Y-8346428D01*
X2360810Y-8355952D01*
X2341762Y-8365476D01*
X2322714Y-8365476D01*
X2303667Y-8355952D01*
X2294143Y-8346428D01*
X2284619Y-8327381D01*
X2275095Y-8289286D01*
X2275095Y-8241667D01*
X2284619Y-8203571D01*
X2294143Y-8184524D01*
X2303667Y-8175000D01*
X2322714Y-8165476D01*
X2475095Y-8346428D02*
X2484619Y-8355952D01*
X2475095Y-8365476D01*
X2465571Y-8355952D01*
X2475095Y-8346428D01*
X2475095Y-8365476D01*
X2665571Y-8165476D02*
X2570333Y-8165476D01*
X2560810Y-8260714D01*
X2570333Y-8251190D01*
X2589381Y-8241667D01*
X2637000Y-8241667D01*
X2656048Y-8251190D01*
X2665571Y-8260714D01*
X2675095Y-8279762D01*
X2675095Y-8327381D01*
X2665571Y-8346428D01*
X2656048Y-8355952D01*
X2637000Y-8365476D01*
X2589381Y-8365476D01*
X2570333Y-8355952D01*
X2560810Y-8346428D01*
X2798905Y-8165476D02*
X2817952Y-8165476D01*
X2837000Y-8175000D01*
X2846524Y-8184524D01*
X2856048Y-8203571D01*
X2865571Y-8241667D01*
X2865571Y-8289286D01*
X2856048Y-8327381D01*
X2846524Y-8346428D01*
X2837000Y-8355952D01*
X2817952Y-8365476D01*
X2798905Y-8365476D01*
X2779857Y-8355952D01*
X2770333Y-8346428D01*
X2760810Y-8327381D01*
X2751286Y-8289286D01*
X2751286Y-8241667D01*
X2760810Y-8203571D01*
X2770333Y-8184524D01*
X2779857Y-8175000D01*
X2798905Y-8165476D01*
X2989381Y-8165476D02*
X3008428Y-8165476D01*
X3027476Y-8175000D01*
X3037000Y-8184524D01*
X3046524Y-8203571D01*
X3056048Y-8241667D01*
X3056048Y-8289286D01*
X3046524Y-8327381D01*
X3037000Y-8346428D01*
X3027476Y-8355952D01*
X3008428Y-8365476D01*
X2989381Y-8365476D01*
X2970333Y-8355952D01*
X2960809Y-8346428D01*
X2951286Y-8327381D01*
X2941762Y-8289286D01*
X2941762Y-8241667D01*
X2951286Y-8203571D01*
X2960809Y-8184524D01*
X2970333Y-8175000D01*
X2989381Y-8165476D01*
X3141762Y-8365476D02*
X3141762Y-8232143D01*
X3141762Y-8251190D02*
X3151286Y-8241667D01*
X3170333Y-8232143D01*
X3198905Y-8232143D01*
X3217952Y-8241667D01*
X3227476Y-8260714D01*
X3227476Y-8365476D01*
X3227476Y-8260714D02*
X3237000Y-8241667D01*
X3256048Y-8232143D01*
X3284619Y-8232143D01*
X3303667Y-8241667D01*
X3313190Y-8260714D01*
X3313190Y-8365476D01*
X3408428Y-8365476D02*
X3408428Y-8232143D01*
X3408428Y-8251190D02*
X3417952Y-8241667D01*
X3437000Y-8232143D01*
X3465571Y-8232143D01*
X3484619Y-8241667D01*
X3494143Y-8260714D01*
X3494143Y-8365476D01*
X3494143Y-8260714D02*
X3503667Y-8241667D01*
X3522714Y-8232143D01*
X3551286Y-8232143D01*
X3570333Y-8241667D01*
X3579857Y-8260714D01*
X3579857Y-8365476D01*
X3970333Y-8155952D02*
X3798905Y-8413095D01*
X4227476Y-8165476D02*
X4246524Y-8165476D01*
X4265571Y-8175000D01*
X4275095Y-8184524D01*
X4284619Y-8203571D01*
X4294143Y-8241667D01*
X4294143Y-8289286D01*
X4284619Y-8327381D01*
X4275095Y-8346428D01*
X4265571Y-8355952D01*
X4246524Y-8365476D01*
X4227476Y-8365476D01*
X4208429Y-8355952D01*
X4198905Y-8346428D01*
X4189381Y-8327381D01*
X4179857Y-8289286D01*
X4179857Y-8241667D01*
X4189381Y-8203571D01*
X4198905Y-8184524D01*
X4208429Y-8175000D01*
X4227476Y-8165476D01*
X4379857Y-8346428D02*
X4389381Y-8355952D01*
X4379857Y-8365476D01*
X4370333Y-8355952D01*
X4379857Y-8346428D01*
X4379857Y-8365476D01*
X4513190Y-8165476D02*
X4532238Y-8165476D01*
X4551286Y-8175000D01*
X4560810Y-8184524D01*
X4570333Y-8203571D01*
X4579857Y-8241667D01*
X4579857Y-8289286D01*
X4570333Y-8327381D01*
X4560810Y-8346428D01*
X4551286Y-8355952D01*
X4532238Y-8365476D01*
X4513190Y-8365476D01*
X4494143Y-8355952D01*
X4484619Y-8346428D01*
X4475095Y-8327381D01*
X4465571Y-8289286D01*
X4465571Y-8241667D01*
X4475095Y-8203571D01*
X4484619Y-8184524D01*
X4494143Y-8175000D01*
X4513190Y-8165476D01*
X4770333Y-8365476D02*
X4656048Y-8365476D01*
X4713190Y-8365476D02*
X4713190Y-8165476D01*
X4694143Y-8194048D01*
X4675095Y-8213095D01*
X4656048Y-8222619D01*
X4865571Y-8365476D02*
X4903667Y-8365476D01*
X4922714Y-8355952D01*
X4932238Y-8346428D01*
X4951286Y-8317857D01*
X4960810Y-8279762D01*
X4960810Y-8203571D01*
X4951286Y-8184524D01*
X4941762Y-8175000D01*
X4922714Y-8165476D01*
X4884619Y-8165476D01*
X4865571Y-8175000D01*
X4856048Y-8184524D01*
X4846524Y-8203571D01*
X4846524Y-8251190D01*
X4856048Y-8270238D01*
X4865571Y-8279762D01*
X4884619Y-8289286D01*
X4922714Y-8289286D01*
X4941762Y-8279762D01*
X4951286Y-8270238D01*
X4960810Y-8251190D01*
X5027476Y-8165476D02*
X5160810Y-8165476D01*
X5075095Y-8365476D01*
X5227476Y-8165476D02*
X5227476Y-8203571D01*
X5303667Y-8165476D02*
X5303667Y-8203571D01*
X5598905Y-8441667D02*
X5589381Y-8432143D01*
X5570333Y-8403571D01*
X5560810Y-8384524D01*
X5551286Y-8355952D01*
X5541762Y-8308333D01*
X5541762Y-8270238D01*
X5551286Y-8222619D01*
X5560810Y-8194048D01*
X5570333Y-8175000D01*
X5589381Y-8146428D01*
X5598905Y-8136905D01*
X5779857Y-8365476D02*
X5665571Y-8365476D01*
X5722714Y-8365476D02*
X5722714Y-8165476D01*
X5703667Y-8194048D01*
X5684619Y-8213095D01*
X5665571Y-8222619D01*
X5846524Y-8165476D02*
X5970333Y-8165476D01*
X5903667Y-8241667D01*
X5932238Y-8241667D01*
X5951286Y-8251190D01*
X5960809Y-8260714D01*
X5970333Y-8279762D01*
X5970333Y-8327381D01*
X5960809Y-8346428D01*
X5951286Y-8355952D01*
X5932238Y-8365476D01*
X5875095Y-8365476D01*
X5856048Y-8355952D01*
X5846524Y-8346428D01*
X6141762Y-8165476D02*
X6103667Y-8165476D01*
X6084619Y-8175000D01*
X6075095Y-8184524D01*
X6056048Y-8213095D01*
X6046524Y-8251190D01*
X6046524Y-8327381D01*
X6056048Y-8346428D01*
X6065571Y-8355952D01*
X6084619Y-8365476D01*
X6122714Y-8365476D01*
X6141762Y-8355952D01*
X6151286Y-8346428D01*
X6160809Y-8327381D01*
X6160809Y-8279762D01*
X6151286Y-8260714D01*
X6141762Y-8251190D01*
X6122714Y-8241667D01*
X6084619Y-8241667D01*
X6065571Y-8251190D01*
X6056048Y-8260714D01*
X6046524Y-8279762D01*
X6398905Y-8365476D02*
X6398905Y-8165476D01*
X6484619Y-8365476D02*
X6484619Y-8260714D01*
X6475095Y-8241667D01*
X6456048Y-8232143D01*
X6427476Y-8232143D01*
X6408428Y-8241667D01*
X6398905Y-8251190D01*
X6608428Y-8365476D02*
X6589381Y-8355952D01*
X6579857Y-8346428D01*
X6570333Y-8327381D01*
X6570333Y-8270238D01*
X6579857Y-8251190D01*
X6589381Y-8241667D01*
X6608428Y-8232143D01*
X6637000Y-8232143D01*
X6656048Y-8241667D01*
X6665571Y-8251190D01*
X6675095Y-8270238D01*
X6675095Y-8327381D01*
X6665571Y-8346428D01*
X6656048Y-8355952D01*
X6637000Y-8365476D01*
X6608428Y-8365476D01*
X6789381Y-8365476D02*
X6770333Y-8355952D01*
X6760809Y-8336905D01*
X6760809Y-8165476D01*
X6941762Y-8355952D02*
X6922714Y-8365476D01*
X6884619Y-8365476D01*
X6865571Y-8355952D01*
X6856048Y-8336905D01*
X6856048Y-8260714D01*
X6865571Y-8241667D01*
X6884619Y-8232143D01*
X6922714Y-8232143D01*
X6941762Y-8241667D01*
X6951286Y-8260714D01*
X6951286Y-8279762D01*
X6856048Y-8298809D01*
X7027476Y-8355952D02*
X7046524Y-8365476D01*
X7084619Y-8365476D01*
X7103667Y-8355952D01*
X7113190Y-8336905D01*
X7113190Y-8327381D01*
X7103667Y-8308333D01*
X7084619Y-8298809D01*
X7056048Y-8298809D01*
X7037000Y-8289286D01*
X7027476Y-8270238D01*
X7027476Y-8260714D01*
X7037000Y-8241667D01*
X7056048Y-8232143D01*
X7084619Y-8232143D01*
X7103667Y-8241667D01*
X7179857Y-8441667D02*
X7189381Y-8432143D01*
X7208428Y-8403571D01*
X7217952Y-8384524D01*
X7227476Y-8355952D01*
X7237000Y-8308333D01*
X7237000Y-8270238D01*
X7227476Y-8222619D01*
X7217952Y-8194048D01*
X7208428Y-8175000D01*
X7189381Y-8146428D01*
X7179857Y-8136905D01*
D13*
X2002000Y-8514000D02*
X2002000Y-8564000D01*
X1977000Y-8539000D02*
X2027000Y-8539000D01*
D11*
X2322714Y-8429476D02*
X2341762Y-8429476D01*
X2360810Y-8439000D01*
X2370333Y-8448524D01*
X2379857Y-8467571D01*
X2389381Y-8505667D01*
X2389381Y-8553286D01*
X2379857Y-8591381D01*
X2370333Y-8610429D01*
X2360810Y-8619952D01*
X2341762Y-8629476D01*
X2322714Y-8629476D01*
X2303667Y-8619952D01*
X2294143Y-8610429D01*
X2284619Y-8591381D01*
X2275095Y-8553286D01*
X2275095Y-8505667D01*
X2284619Y-8467571D01*
X2294143Y-8448524D01*
X2303667Y-8439000D01*
X2322714Y-8429476D01*
X2475095Y-8610429D02*
X2484619Y-8619952D01*
X2475095Y-8629476D01*
X2465571Y-8619952D01*
X2475095Y-8610429D01*
X2475095Y-8629476D01*
X2665571Y-8429476D02*
X2570333Y-8429476D01*
X2560810Y-8524714D01*
X2570333Y-8515190D01*
X2589381Y-8505667D01*
X2637000Y-8505667D01*
X2656048Y-8515190D01*
X2665571Y-8524714D01*
X2675095Y-8543762D01*
X2675095Y-8591381D01*
X2665571Y-8610429D01*
X2656048Y-8619952D01*
X2637000Y-8629476D01*
X2589381Y-8629476D01*
X2570333Y-8619952D01*
X2560810Y-8610429D01*
X2798905Y-8429476D02*
X2817952Y-8429476D01*
X2837000Y-8439000D01*
X2846524Y-8448524D01*
X2856048Y-8467571D01*
X2865571Y-8505667D01*
X2865571Y-8553286D01*
X2856048Y-8591381D01*
X2846524Y-8610429D01*
X2837000Y-8619952D01*
X2817952Y-8629476D01*
X2798905Y-8629476D01*
X2779857Y-8619952D01*
X2770333Y-8610429D01*
X2760810Y-8591381D01*
X2751286Y-8553286D01*
X2751286Y-8505667D01*
X2760810Y-8467571D01*
X2770333Y-8448524D01*
X2779857Y-8439000D01*
X2798905Y-8429476D01*
X2989381Y-8429476D02*
X3008428Y-8429476D01*
X3027476Y-8439000D01*
X3037000Y-8448524D01*
X3046524Y-8467571D01*
X3056048Y-8505667D01*
X3056048Y-8553286D01*
X3046524Y-8591381D01*
X3037000Y-8610429D01*
X3027476Y-8619952D01*
X3008428Y-8629476D01*
X2989381Y-8629476D01*
X2970333Y-8619952D01*
X2960809Y-8610429D01*
X2951286Y-8591381D01*
X2941762Y-8553286D01*
X2941762Y-8505667D01*
X2951286Y-8467571D01*
X2960809Y-8448524D01*
X2970333Y-8439000D01*
X2989381Y-8429476D01*
X3141762Y-8629476D02*
X3141762Y-8496143D01*
X3141762Y-8515190D02*
X3151286Y-8505667D01*
X3170333Y-8496143D01*
X3198905Y-8496143D01*
X3217952Y-8505667D01*
X3227476Y-8524714D01*
X3227476Y-8629476D01*
X3227476Y-8524714D02*
X3237000Y-8505667D01*
X3256048Y-8496143D01*
X3284619Y-8496143D01*
X3303667Y-8505667D01*
X3313190Y-8524714D01*
X3313190Y-8629476D01*
X3408428Y-8629476D02*
X3408428Y-8496143D01*
X3408428Y-8515190D02*
X3417952Y-8505667D01*
X3437000Y-8496143D01*
X3465571Y-8496143D01*
X3484619Y-8505667D01*
X3494143Y-8524714D01*
X3494143Y-8629476D01*
X3494143Y-8524714D02*
X3503667Y-8505667D01*
X3522714Y-8496143D01*
X3551286Y-8496143D01*
X3570333Y-8505667D01*
X3579857Y-8524714D01*
X3579857Y-8629476D01*
X3970333Y-8419952D02*
X3798905Y-8677095D01*
X4227476Y-8429476D02*
X4246524Y-8429476D01*
X4265571Y-8439000D01*
X4275095Y-8448524D01*
X4284619Y-8467571D01*
X4294143Y-8505667D01*
X4294143Y-8553286D01*
X4284619Y-8591381D01*
X4275095Y-8610429D01*
X4265571Y-8619952D01*
X4246524Y-8629476D01*
X4227476Y-8629476D01*
X4208429Y-8619952D01*
X4198905Y-8610429D01*
X4189381Y-8591381D01*
X4179857Y-8553286D01*
X4179857Y-8505667D01*
X4189381Y-8467571D01*
X4198905Y-8448524D01*
X4208429Y-8439000D01*
X4227476Y-8429476D01*
X4379857Y-8610429D02*
X4389381Y-8619952D01*
X4379857Y-8629476D01*
X4370333Y-8619952D01*
X4379857Y-8610429D01*
X4379857Y-8629476D01*
X4513190Y-8429476D02*
X4532238Y-8429476D01*
X4551286Y-8439000D01*
X4560810Y-8448524D01*
X4570333Y-8467571D01*
X4579857Y-8505667D01*
X4579857Y-8553286D01*
X4570333Y-8591381D01*
X4560810Y-8610429D01*
X4551286Y-8619952D01*
X4532238Y-8629476D01*
X4513190Y-8629476D01*
X4494143Y-8619952D01*
X4484619Y-8610429D01*
X4475095Y-8591381D01*
X4465571Y-8553286D01*
X4465571Y-8505667D01*
X4475095Y-8467571D01*
X4484619Y-8448524D01*
X4494143Y-8439000D01*
X4513190Y-8429476D01*
X4770333Y-8629476D02*
X4656048Y-8629476D01*
X4713190Y-8629476D02*
X4713190Y-8429476D01*
X4694143Y-8458048D01*
X4675095Y-8477095D01*
X4656048Y-8486619D01*
X4865571Y-8629476D02*
X4903667Y-8629476D01*
X4922714Y-8619952D01*
X4932238Y-8610429D01*
X4951286Y-8581857D01*
X4960810Y-8543762D01*
X4960810Y-8467571D01*
X4951286Y-8448524D01*
X4941762Y-8439000D01*
X4922714Y-8429476D01*
X4884619Y-8429476D01*
X4865571Y-8439000D01*
X4856048Y-8448524D01*
X4846524Y-8467571D01*
X4846524Y-8515190D01*
X4856048Y-8534238D01*
X4865571Y-8543762D01*
X4884619Y-8553286D01*
X4922714Y-8553286D01*
X4941762Y-8543762D01*
X4951286Y-8534238D01*
X4960810Y-8515190D01*
X5027476Y-8429476D02*
X5160810Y-8429476D01*
X5075095Y-8629476D01*
X5227476Y-8429476D02*
X5227476Y-8467571D01*
X5303667Y-8429476D02*
X5303667Y-8467571D01*
X5598905Y-8705667D02*
X5589381Y-8696143D01*
X5570333Y-8667571D01*
X5560810Y-8648524D01*
X5551286Y-8619952D01*
X5541762Y-8572333D01*
X5541762Y-8534238D01*
X5551286Y-8486619D01*
X5560810Y-8458048D01*
X5570333Y-8439000D01*
X5589381Y-8410429D01*
X5598905Y-8400905D01*
X5656048Y-8429476D02*
X5779857Y-8429476D01*
X5713190Y-8505667D01*
X5741762Y-8505667D01*
X5760809Y-8515190D01*
X5770333Y-8524714D01*
X5779857Y-8543762D01*
X5779857Y-8591381D01*
X5770333Y-8610429D01*
X5760809Y-8619952D01*
X5741762Y-8629476D01*
X5684619Y-8629476D01*
X5665571Y-8619952D01*
X5656048Y-8610429D01*
X5856048Y-8448524D02*
X5865571Y-8439000D01*
X5884619Y-8429476D01*
X5932238Y-8429476D01*
X5951286Y-8439000D01*
X5960809Y-8448524D01*
X5970333Y-8467571D01*
X5970333Y-8486619D01*
X5960809Y-8515190D01*
X5846524Y-8629476D01*
X5970333Y-8629476D01*
X6208428Y-8629476D02*
X6208428Y-8429476D01*
X6294143Y-8629476D02*
X6294143Y-8524714D01*
X6284619Y-8505667D01*
X6265571Y-8496143D01*
X6237000Y-8496143D01*
X6217952Y-8505667D01*
X6208428Y-8515190D01*
X6417952Y-8629476D02*
X6398905Y-8619952D01*
X6389381Y-8610429D01*
X6379857Y-8591381D01*
X6379857Y-8534238D01*
X6389381Y-8515190D01*
X6398905Y-8505667D01*
X6417952Y-8496143D01*
X6446524Y-8496143D01*
X6465571Y-8505667D01*
X6475095Y-8515190D01*
X6484619Y-8534238D01*
X6484619Y-8591381D01*
X6475095Y-8610429D01*
X6465571Y-8619952D01*
X6446524Y-8629476D01*
X6417952Y-8629476D01*
X6598905Y-8629476D02*
X6579857Y-8619952D01*
X6570333Y-8600905D01*
X6570333Y-8429476D01*
X6751286Y-8619952D02*
X6732238Y-8629476D01*
X6694143Y-8629476D01*
X6675095Y-8619952D01*
X6665571Y-8600905D01*
X6665571Y-8524714D01*
X6675095Y-8505667D01*
X6694143Y-8496143D01*
X6732238Y-8496143D01*
X6751286Y-8505667D01*
X6760809Y-8524714D01*
X6760809Y-8543762D01*
X6665571Y-8562810D01*
X6837000Y-8619952D02*
X6856048Y-8629476D01*
X6894143Y-8629476D01*
X6913190Y-8619952D01*
X6922714Y-8600905D01*
X6922714Y-8591381D01*
X6913190Y-8572333D01*
X6894143Y-8562810D01*
X6865571Y-8562810D01*
X6846524Y-8553286D01*
X6837000Y-8534238D01*
X6837000Y-8524714D01*
X6846524Y-8505667D01*
X6865571Y-8496143D01*
X6894143Y-8496143D01*
X6913190Y-8505667D01*
X6989381Y-8705667D02*
X6998905Y-8696143D01*
X7017952Y-8667571D01*
X7027476Y-8648524D01*
X7037000Y-8619952D01*
X7046524Y-8572333D01*
X7046524Y-8534238D01*
X7037000Y-8486619D01*
X7027476Y-8458048D01*
X7017952Y-8439000D01*
X6998905Y-8410429D01*
X6989381Y-8400905D01*
D14*
X2018213Y-8824213D02*
X2018213Y-8781787D01*
X1975787Y-8781787D01*
X1975787Y-8824213D01*
X2018213Y-8824213D01*
D11*
X2322714Y-8693476D02*
X2341762Y-8693476D01*
X2360810Y-8703000D01*
X2370333Y-8712524D01*
X2379857Y-8731571D01*
X2389381Y-8769667D01*
X2389381Y-8817286D01*
X2379857Y-8855381D01*
X2370333Y-8874429D01*
X2360810Y-8883952D01*
X2341762Y-8893476D01*
X2322714Y-8893476D01*
X2303667Y-8883952D01*
X2294143Y-8874429D01*
X2284619Y-8855381D01*
X2275095Y-8817286D01*
X2275095Y-8769667D01*
X2284619Y-8731571D01*
X2294143Y-8712524D01*
X2303667Y-8703000D01*
X2322714Y-8693476D01*
X2475095Y-8874429D02*
X2484619Y-8883952D01*
X2475095Y-8893476D01*
X2465571Y-8883952D01*
X2475095Y-8874429D01*
X2475095Y-8893476D01*
X2656048Y-8693476D02*
X2617952Y-8693476D01*
X2598905Y-8703000D01*
X2589381Y-8712524D01*
X2570333Y-8741095D01*
X2560810Y-8779190D01*
X2560810Y-8855381D01*
X2570333Y-8874429D01*
X2579857Y-8883952D01*
X2598905Y-8893476D01*
X2637000Y-8893476D01*
X2656048Y-8883952D01*
X2665571Y-8874429D01*
X2675095Y-8855381D01*
X2675095Y-8807762D01*
X2665571Y-8788714D01*
X2656048Y-8779190D01*
X2637000Y-8769667D01*
X2598905Y-8769667D01*
X2579857Y-8779190D01*
X2570333Y-8788714D01*
X2560810Y-8807762D01*
X2798905Y-8693476D02*
X2817952Y-8693476D01*
X2837000Y-8703000D01*
X2846524Y-8712524D01*
X2856048Y-8731571D01*
X2865571Y-8769667D01*
X2865571Y-8817286D01*
X2856048Y-8855381D01*
X2846524Y-8874429D01*
X2837000Y-8883952D01*
X2817952Y-8893476D01*
X2798905Y-8893476D01*
X2779857Y-8883952D01*
X2770333Y-8874429D01*
X2760810Y-8855381D01*
X2751286Y-8817286D01*
X2751286Y-8769667D01*
X2760810Y-8731571D01*
X2770333Y-8712524D01*
X2779857Y-8703000D01*
X2798905Y-8693476D01*
X2989381Y-8693476D02*
X3008428Y-8693476D01*
X3027476Y-8703000D01*
X3037000Y-8712524D01*
X3046524Y-8731571D01*
X3056048Y-8769667D01*
X3056048Y-8817286D01*
X3046524Y-8855381D01*
X3037000Y-8874429D01*
X3027476Y-8883952D01*
X3008428Y-8893476D01*
X2989381Y-8893476D01*
X2970333Y-8883952D01*
X2960809Y-8874429D01*
X2951286Y-8855381D01*
X2941762Y-8817286D01*
X2941762Y-8769667D01*
X2951286Y-8731571D01*
X2960809Y-8712524D01*
X2970333Y-8703000D01*
X2989381Y-8693476D01*
X3141762Y-8893476D02*
X3141762Y-8760143D01*
X3141762Y-8779190D02*
X3151286Y-8769667D01*
X3170333Y-8760143D01*
X3198905Y-8760143D01*
X3217952Y-8769667D01*
X3227476Y-8788714D01*
X3227476Y-8893476D01*
X3227476Y-8788714D02*
X3237000Y-8769667D01*
X3256048Y-8760143D01*
X3284619Y-8760143D01*
X3303667Y-8769667D01*
X3313190Y-8788714D01*
X3313190Y-8893476D01*
X3408428Y-8893476D02*
X3408428Y-8760143D01*
X3408428Y-8779190D02*
X3417952Y-8769667D01*
X3437000Y-8760143D01*
X3465571Y-8760143D01*
X3484619Y-8769667D01*
X3494143Y-8788714D01*
X3494143Y-8893476D01*
X3494143Y-8788714D02*
X3503667Y-8769667D01*
X3522714Y-8760143D01*
X3551286Y-8760143D01*
X3570333Y-8769667D01*
X3579857Y-8788714D01*
X3579857Y-8893476D01*
X3970333Y-8683952D02*
X3798905Y-8941095D01*
X4227476Y-8693476D02*
X4246524Y-8693476D01*
X4265571Y-8703000D01*
X4275095Y-8712524D01*
X4284619Y-8731571D01*
X4294143Y-8769667D01*
X4294143Y-8817286D01*
X4284619Y-8855381D01*
X4275095Y-8874429D01*
X4265571Y-8883952D01*
X4246524Y-8893476D01*
X4227476Y-8893476D01*
X4208429Y-8883952D01*
X4198905Y-8874429D01*
X4189381Y-8855381D01*
X4179857Y-8817286D01*
X4179857Y-8769667D01*
X4189381Y-8731571D01*
X4198905Y-8712524D01*
X4208429Y-8703000D01*
X4227476Y-8693476D01*
X4379857Y-8874429D02*
X4389381Y-8883952D01*
X4379857Y-8893476D01*
X4370333Y-8883952D01*
X4379857Y-8874429D01*
X4379857Y-8893476D01*
X4513190Y-8693476D02*
X4532238Y-8693476D01*
X4551286Y-8703000D01*
X4560810Y-8712524D01*
X4570333Y-8731571D01*
X4579857Y-8769667D01*
X4579857Y-8817286D01*
X4570333Y-8855381D01*
X4560810Y-8874429D01*
X4551286Y-8883952D01*
X4532238Y-8893476D01*
X4513190Y-8893476D01*
X4494143Y-8883952D01*
X4484619Y-8874429D01*
X4475095Y-8855381D01*
X4465571Y-8817286D01*
X4465571Y-8769667D01*
X4475095Y-8731571D01*
X4484619Y-8712524D01*
X4494143Y-8703000D01*
X4513190Y-8693476D01*
X4656048Y-8712524D02*
X4665571Y-8703000D01*
X4684619Y-8693476D01*
X4732238Y-8693476D01*
X4751286Y-8703000D01*
X4760810Y-8712524D01*
X4770333Y-8731571D01*
X4770333Y-8750619D01*
X4760810Y-8779190D01*
X4646524Y-8893476D01*
X4770333Y-8893476D01*
X4837000Y-8693476D02*
X4960810Y-8693476D01*
X4894143Y-8769667D01*
X4922714Y-8769667D01*
X4941762Y-8779190D01*
X4951286Y-8788714D01*
X4960810Y-8807762D01*
X4960810Y-8855381D01*
X4951286Y-8874429D01*
X4941762Y-8883952D01*
X4922714Y-8893476D01*
X4865571Y-8893476D01*
X4846524Y-8883952D01*
X4837000Y-8874429D01*
X5132238Y-8693476D02*
X5094143Y-8693476D01*
X5075095Y-8703000D01*
X5065571Y-8712524D01*
X5046524Y-8741095D01*
X5037000Y-8779190D01*
X5037000Y-8855381D01*
X5046524Y-8874429D01*
X5056048Y-8883952D01*
X5075095Y-8893476D01*
X5113190Y-8893476D01*
X5132238Y-8883952D01*
X5141762Y-8874429D01*
X5151286Y-8855381D01*
X5151286Y-8807762D01*
X5141762Y-8788714D01*
X5132238Y-8779190D01*
X5113190Y-8769667D01*
X5075095Y-8769667D01*
X5056048Y-8779190D01*
X5046524Y-8788714D01*
X5037000Y-8807762D01*
X5227476Y-8693476D02*
X5227476Y-8731571D01*
X5303667Y-8693476D02*
X5303667Y-8731571D01*
X5598905Y-8969667D02*
X5589381Y-8960143D01*
X5570333Y-8931571D01*
X5560810Y-8912524D01*
X5551286Y-8883952D01*
X5541762Y-8836333D01*
X5541762Y-8798238D01*
X5551286Y-8750619D01*
X5560810Y-8722048D01*
X5570333Y-8703000D01*
X5589381Y-8674429D01*
X5598905Y-8664905D01*
X5713190Y-8693476D02*
X5732238Y-8693476D01*
X5751286Y-8703000D01*
X5760809Y-8712524D01*
X5770333Y-8731571D01*
X5779857Y-8769667D01*
X5779857Y-8817286D01*
X5770333Y-8855381D01*
X5760809Y-8874429D01*
X5751286Y-8883952D01*
X5732238Y-8893476D01*
X5713190Y-8893476D01*
X5694143Y-8883952D01*
X5684619Y-8874429D01*
X5675095Y-8855381D01*
X5665571Y-8817286D01*
X5665571Y-8769667D01*
X5675095Y-8731571D01*
X5684619Y-8712524D01*
X5694143Y-8703000D01*
X5713190Y-8693476D01*
X6017952Y-8893476D02*
X6017952Y-8693476D01*
X6103667Y-8893476D02*
X6103667Y-8788714D01*
X6094143Y-8769667D01*
X6075095Y-8760143D01*
X6046524Y-8760143D01*
X6027476Y-8769667D01*
X6017952Y-8779190D01*
X6227476Y-8893476D02*
X6208428Y-8883952D01*
X6198905Y-8874429D01*
X6189381Y-8855381D01*
X6189381Y-8798238D01*
X6198905Y-8779190D01*
X6208428Y-8769667D01*
X6227476Y-8760143D01*
X6256048Y-8760143D01*
X6275095Y-8769667D01*
X6284619Y-8779190D01*
X6294143Y-8798238D01*
X6294143Y-8855381D01*
X6284619Y-8874429D01*
X6275095Y-8883952D01*
X6256048Y-8893476D01*
X6227476Y-8893476D01*
X6408428Y-8893476D02*
X6389381Y-8883952D01*
X6379857Y-8864905D01*
X6379857Y-8693476D01*
X6560809Y-8883952D02*
X6541762Y-8893476D01*
X6503667Y-8893476D01*
X6484619Y-8883952D01*
X6475095Y-8864905D01*
X6475095Y-8788714D01*
X6484619Y-8769667D01*
X6503667Y-8760143D01*
X6541762Y-8760143D01*
X6560809Y-8769667D01*
X6570333Y-8788714D01*
X6570333Y-8807762D01*
X6475095Y-8826810D01*
X6646524Y-8883952D02*
X6665571Y-8893476D01*
X6703667Y-8893476D01*
X6722714Y-8883952D01*
X6732238Y-8864905D01*
X6732238Y-8855381D01*
X6722714Y-8836333D01*
X6703667Y-8826810D01*
X6675095Y-8826810D01*
X6656048Y-8817286D01*
X6646524Y-8798238D01*
X6646524Y-8788714D01*
X6656048Y-8769667D01*
X6675095Y-8760143D01*
X6703667Y-8760143D01*
X6722714Y-8769667D01*
X6970333Y-8817286D02*
X7122714Y-8817286D01*
X7046524Y-8893476D02*
X7046524Y-8741095D01*
X7398905Y-8779190D02*
X7379857Y-8769667D01*
X7370333Y-8760143D01*
X7360809Y-8741095D01*
X7360809Y-8731571D01*
X7370333Y-8712524D01*
X7379857Y-8703000D01*
X7398905Y-8693476D01*
X7437000Y-8693476D01*
X7456048Y-8703000D01*
X7465571Y-8712524D01*
X7475095Y-8731571D01*
X7475095Y-8741095D01*
X7465571Y-8760143D01*
X7456048Y-8769667D01*
X7437000Y-8779190D01*
X7398905Y-8779190D01*
X7379857Y-8788714D01*
X7370333Y-8798238D01*
X7360809Y-8817286D01*
X7360809Y-8855381D01*
X7370333Y-8874429D01*
X7379857Y-8883952D01*
X7398905Y-8893476D01*
X7437000Y-8893476D01*
X7456048Y-8883952D01*
X7465571Y-8874429D01*
X7475095Y-8855381D01*
X7475095Y-8817286D01*
X7465571Y-8798238D01*
X7456048Y-8788714D01*
X7437000Y-8779190D01*
X7703667Y-8883952D02*
X7722714Y-8893476D01*
X7760809Y-8893476D01*
X7779857Y-8883952D01*
X7789381Y-8864905D01*
X7789381Y-8855381D01*
X7779857Y-8836333D01*
X7760809Y-8826810D01*
X7732238Y-8826810D01*
X7713190Y-8817286D01*
X7703667Y-8798238D01*
X7703667Y-8788714D01*
X7713190Y-8769667D01*
X7732238Y-8760143D01*
X7760809Y-8760143D01*
X7779857Y-8769667D01*
X7903667Y-8893476D02*
X7884619Y-8883952D01*
X7875095Y-8864905D01*
X7875095Y-8693476D01*
X8008428Y-8893476D02*
X7989381Y-8883952D01*
X7979857Y-8874429D01*
X7970333Y-8855381D01*
X7970333Y-8798238D01*
X7979857Y-8779190D01*
X7989381Y-8769667D01*
X8008428Y-8760143D01*
X8037000Y-8760143D01*
X8056048Y-8769667D01*
X8065571Y-8779190D01*
X8075095Y-8798238D01*
X8075095Y-8855381D01*
X8065571Y-8874429D01*
X8056048Y-8883952D01*
X8037000Y-8893476D01*
X8008428Y-8893476D01*
X8132238Y-8760143D02*
X8208428Y-8760143D01*
X8160809Y-8693476D02*
X8160809Y-8864905D01*
X8170333Y-8883952D01*
X8189381Y-8893476D01*
X8208428Y-8893476D01*
X8265571Y-8883952D02*
X8284619Y-8893476D01*
X8322714Y-8893476D01*
X8341762Y-8883952D01*
X8351286Y-8864905D01*
X8351286Y-8855381D01*
X8341762Y-8836333D01*
X8322714Y-8826810D01*
X8294143Y-8826810D01*
X8275095Y-8817286D01*
X8265571Y-8798238D01*
X8265571Y-8788714D01*
X8275095Y-8769667D01*
X8294143Y-8760143D01*
X8322714Y-8760143D01*
X8341762Y-8769667D01*
X8417952Y-8969667D02*
X8427476Y-8960143D01*
X8446524Y-8931571D01*
X8456048Y-8912524D01*
X8465571Y-8883952D01*
X8475095Y-8836333D01*
X8475095Y-8798238D01*
X8465571Y-8750619D01*
X8456048Y-8722048D01*
X8446524Y-8703000D01*
X8427476Y-8674429D01*
X8417952Y-8664905D01*
D15*
X1987000Y-9107000D02*
X2027000Y-9067000D01*
X1987000Y-9027000D01*
X1947000Y-9067000D01*
X1987000Y-9107000D01*
D11*
X2322714Y-8957476D02*
X2341762Y-8957476D01*
X2360810Y-8967000D01*
X2370333Y-8976524D01*
X2379857Y-8995571D01*
X2389381Y-9033667D01*
X2389381Y-9081286D01*
X2379857Y-9119381D01*
X2370333Y-9138429D01*
X2360810Y-9147952D01*
X2341762Y-9157476D01*
X2322714Y-9157476D01*
X2303667Y-9147952D01*
X2294143Y-9138429D01*
X2284619Y-9119381D01*
X2275095Y-9081286D01*
X2275095Y-9033667D01*
X2284619Y-8995571D01*
X2294143Y-8976524D01*
X2303667Y-8967000D01*
X2322714Y-8957476D01*
X2475095Y-9138429D02*
X2484619Y-9147952D01*
X2475095Y-9157476D01*
X2465571Y-9147952D01*
X2475095Y-9138429D01*
X2475095Y-9157476D01*
X2598905Y-9043190D02*
X2579857Y-9033667D01*
X2570333Y-9024143D01*
X2560810Y-9005095D01*
X2560810Y-8995571D01*
X2570333Y-8976524D01*
X2579857Y-8967000D01*
X2598905Y-8957476D01*
X2637000Y-8957476D01*
X2656048Y-8967000D01*
X2665571Y-8976524D01*
X2675095Y-8995571D01*
X2675095Y-9005095D01*
X2665571Y-9024143D01*
X2656048Y-9033667D01*
X2637000Y-9043190D01*
X2598905Y-9043190D01*
X2579857Y-9052714D01*
X2570333Y-9062238D01*
X2560810Y-9081286D01*
X2560810Y-9119381D01*
X2570333Y-9138429D01*
X2579857Y-9147952D01*
X2598905Y-9157476D01*
X2637000Y-9157476D01*
X2656048Y-9147952D01*
X2665571Y-9138429D01*
X2675095Y-9119381D01*
X2675095Y-9081286D01*
X2665571Y-9062238D01*
X2656048Y-9052714D01*
X2637000Y-9043190D01*
X2798905Y-8957476D02*
X2817952Y-8957476D01*
X2837000Y-8967000D01*
X2846524Y-8976524D01*
X2856048Y-8995571D01*
X2865571Y-9033667D01*
X2865571Y-9081286D01*
X2856048Y-9119381D01*
X2846524Y-9138429D01*
X2837000Y-9147952D01*
X2817952Y-9157476D01*
X2798905Y-9157476D01*
X2779857Y-9147952D01*
X2770333Y-9138429D01*
X2760810Y-9119381D01*
X2751286Y-9081286D01*
X2751286Y-9033667D01*
X2760810Y-8995571D01*
X2770333Y-8976524D01*
X2779857Y-8967000D01*
X2798905Y-8957476D01*
X2989381Y-8957476D02*
X3008428Y-8957476D01*
X3027476Y-8967000D01*
X3037000Y-8976524D01*
X3046524Y-8995571D01*
X3056048Y-9033667D01*
X3056048Y-9081286D01*
X3046524Y-9119381D01*
X3037000Y-9138429D01*
X3027476Y-9147952D01*
X3008428Y-9157476D01*
X2989381Y-9157476D01*
X2970333Y-9147952D01*
X2960809Y-9138429D01*
X2951286Y-9119381D01*
X2941762Y-9081286D01*
X2941762Y-9033667D01*
X2951286Y-8995571D01*
X2960809Y-8976524D01*
X2970333Y-8967000D01*
X2989381Y-8957476D01*
X3141762Y-9157476D02*
X3141762Y-9024143D01*
X3141762Y-9043190D02*
X3151286Y-9033667D01*
X3170333Y-9024143D01*
X3198905Y-9024143D01*
X3217952Y-9033667D01*
X3227476Y-9052714D01*
X3227476Y-9157476D01*
X3227476Y-9052714D02*
X3237000Y-9033667D01*
X3256048Y-9024143D01*
X3284619Y-9024143D01*
X3303667Y-9033667D01*
X3313190Y-9052714D01*
X3313190Y-9157476D01*
X3408428Y-9157476D02*
X3408428Y-9024143D01*
X3408428Y-9043190D02*
X3417952Y-9033667D01*
X3437000Y-9024143D01*
X3465571Y-9024143D01*
X3484619Y-9033667D01*
X3494143Y-9052714D01*
X3494143Y-9157476D01*
X3494143Y-9052714D02*
X3503667Y-9033667D01*
X3522714Y-9024143D01*
X3551286Y-9024143D01*
X3570333Y-9033667D01*
X3579857Y-9052714D01*
X3579857Y-9157476D01*
X3970333Y-8947952D02*
X3798905Y-9205095D01*
X4227476Y-8957476D02*
X4246524Y-8957476D01*
X4265571Y-8967000D01*
X4275095Y-8976524D01*
X4284619Y-8995571D01*
X4294143Y-9033667D01*
X4294143Y-9081286D01*
X4284619Y-9119381D01*
X4275095Y-9138429D01*
X4265571Y-9147952D01*
X4246524Y-9157476D01*
X4227476Y-9157476D01*
X4208429Y-9147952D01*
X4198905Y-9138429D01*
X4189381Y-9119381D01*
X4179857Y-9081286D01*
X4179857Y-9033667D01*
X4189381Y-8995571D01*
X4198905Y-8976524D01*
X4208429Y-8967000D01*
X4227476Y-8957476D01*
X4379857Y-9138429D02*
X4389381Y-9147952D01*
X4379857Y-9157476D01*
X4370333Y-9147952D01*
X4379857Y-9138429D01*
X4379857Y-9157476D01*
X4513190Y-8957476D02*
X4532238Y-8957476D01*
X4551286Y-8967000D01*
X4560810Y-8976524D01*
X4570333Y-8995571D01*
X4579857Y-9033667D01*
X4579857Y-9081286D01*
X4570333Y-9119381D01*
X4560810Y-9138429D01*
X4551286Y-9147952D01*
X4532238Y-9157476D01*
X4513190Y-9157476D01*
X4494143Y-9147952D01*
X4484619Y-9138429D01*
X4475095Y-9119381D01*
X4465571Y-9081286D01*
X4465571Y-9033667D01*
X4475095Y-8995571D01*
X4484619Y-8976524D01*
X4494143Y-8967000D01*
X4513190Y-8957476D01*
X4646524Y-8957476D02*
X4770333Y-8957476D01*
X4703667Y-9033667D01*
X4732238Y-9033667D01*
X4751286Y-9043190D01*
X4760810Y-9052714D01*
X4770333Y-9071762D01*
X4770333Y-9119381D01*
X4760810Y-9138429D01*
X4751286Y-9147952D01*
X4732238Y-9157476D01*
X4675095Y-9157476D01*
X4656048Y-9147952D01*
X4646524Y-9138429D01*
X4960810Y-9157476D02*
X4846524Y-9157476D01*
X4903667Y-9157476D02*
X4903667Y-8957476D01*
X4884619Y-8986048D01*
X4865571Y-9005095D01*
X4846524Y-9014619D01*
X5141762Y-8957476D02*
X5046524Y-8957476D01*
X5037000Y-9052714D01*
X5046524Y-9043190D01*
X5065571Y-9033667D01*
X5113190Y-9033667D01*
X5132238Y-9043190D01*
X5141762Y-9052714D01*
X5151286Y-9071762D01*
X5151286Y-9119381D01*
X5141762Y-9138429D01*
X5132238Y-9147952D01*
X5113190Y-9157476D01*
X5065571Y-9157476D01*
X5046524Y-9147952D01*
X5037000Y-9138429D01*
X5227476Y-8957476D02*
X5227476Y-8995571D01*
X5303667Y-8957476D02*
X5303667Y-8995571D01*
X5598905Y-9233667D02*
X5589381Y-9224143D01*
X5570333Y-9195571D01*
X5560810Y-9176524D01*
X5551286Y-9147952D01*
X5541762Y-9100333D01*
X5541762Y-9062238D01*
X5551286Y-9014619D01*
X5560810Y-8986048D01*
X5570333Y-8967000D01*
X5589381Y-8938429D01*
X5598905Y-8928905D01*
X5665571Y-8976524D02*
X5675095Y-8967000D01*
X5694143Y-8957476D01*
X5741762Y-8957476D01*
X5760809Y-8967000D01*
X5770333Y-8976524D01*
X5779857Y-8995571D01*
X5779857Y-9014619D01*
X5770333Y-9043190D01*
X5656048Y-9157476D01*
X5779857Y-9157476D01*
X5951286Y-8957476D02*
X5913190Y-8957476D01*
X5894143Y-8967000D01*
X5884619Y-8976524D01*
X5865571Y-9005095D01*
X5856048Y-9043190D01*
X5856048Y-9119381D01*
X5865571Y-9138429D01*
X5875095Y-9147952D01*
X5894143Y-9157476D01*
X5932238Y-9157476D01*
X5951286Y-9147952D01*
X5960809Y-9138429D01*
X5970333Y-9119381D01*
X5970333Y-9071762D01*
X5960809Y-9052714D01*
X5951286Y-9043190D01*
X5932238Y-9033667D01*
X5894143Y-9033667D01*
X5875095Y-9043190D01*
X5865571Y-9052714D01*
X5856048Y-9071762D01*
X6208428Y-9157476D02*
X6208428Y-8957476D01*
X6294143Y-9157476D02*
X6294143Y-9052714D01*
X6284619Y-9033667D01*
X6265571Y-9024143D01*
X6237000Y-9024143D01*
X6217952Y-9033667D01*
X6208428Y-9043190D01*
X6417952Y-9157476D02*
X6398905Y-9147952D01*
X6389381Y-9138429D01*
X6379857Y-9119381D01*
X6379857Y-9062238D01*
X6389381Y-9043190D01*
X6398905Y-9033667D01*
X6417952Y-9024143D01*
X6446524Y-9024143D01*
X6465571Y-9033667D01*
X6475095Y-9043190D01*
X6484619Y-9062238D01*
X6484619Y-9119381D01*
X6475095Y-9138429D01*
X6465571Y-9147952D01*
X6446524Y-9157476D01*
X6417952Y-9157476D01*
X6598905Y-9157476D02*
X6579857Y-9147952D01*
X6570333Y-9128905D01*
X6570333Y-8957476D01*
X6751286Y-9147952D02*
X6732238Y-9157476D01*
X6694143Y-9157476D01*
X6675095Y-9147952D01*
X6665571Y-9128905D01*
X6665571Y-9052714D01*
X6675095Y-9033667D01*
X6694143Y-9024143D01*
X6732238Y-9024143D01*
X6751286Y-9033667D01*
X6760809Y-9052714D01*
X6760809Y-9071762D01*
X6665571Y-9090810D01*
X6837000Y-9147952D02*
X6856048Y-9157476D01*
X6894143Y-9157476D01*
X6913190Y-9147952D01*
X6922714Y-9128905D01*
X6922714Y-9119381D01*
X6913190Y-9100333D01*
X6894143Y-9090810D01*
X6865571Y-9090810D01*
X6846524Y-9081286D01*
X6837000Y-9062238D01*
X6837000Y-9052714D01*
X6846524Y-9033667D01*
X6865571Y-9024143D01*
X6894143Y-9024143D01*
X6913190Y-9033667D01*
X6989381Y-9233667D02*
X6998905Y-9224143D01*
X7017952Y-9195571D01*
X7027476Y-9176524D01*
X7037000Y-9147952D01*
X7046524Y-9100333D01*
X7046524Y-9062238D01*
X7037000Y-9014619D01*
X7027476Y-8986048D01*
X7017952Y-8967000D01*
X6998905Y-8938429D01*
X6989381Y-8928905D01*
D10*
X1927000Y-9281000D02*
X2027000Y-9381000D01*
X2027000Y-9281000D02*
X1927000Y-9381000D01*
X2027000Y-9331000D02*
G75*
G03*
X2027000Y-9331000I-50000J0D01*
G01*
D11*
X2389381Y-9421476D02*
X2275095Y-9421476D01*
X2332238Y-9421476D02*
X2332238Y-9221476D01*
X2313190Y-9250048D01*
X2294143Y-9269095D01*
X2275095Y-9278619D01*
X2475095Y-9402429D02*
X2484619Y-9411952D01*
X2475095Y-9421476D01*
X2465571Y-9411952D01*
X2475095Y-9402429D01*
X2475095Y-9421476D01*
X2608429Y-9221476D02*
X2627476Y-9221476D01*
X2646524Y-9231000D01*
X2656048Y-9240524D01*
X2665571Y-9259571D01*
X2675095Y-9297667D01*
X2675095Y-9345286D01*
X2665571Y-9383381D01*
X2656048Y-9402429D01*
X2646524Y-9411952D01*
X2627476Y-9421476D01*
X2608429Y-9421476D01*
X2589381Y-9411952D01*
X2579857Y-9402429D01*
X2570333Y-9383381D01*
X2560810Y-9345286D01*
X2560810Y-9297667D01*
X2570333Y-9259571D01*
X2579857Y-9240524D01*
X2589381Y-9231000D01*
X2608429Y-9221476D01*
X2798905Y-9221476D02*
X2817952Y-9221476D01*
X2837000Y-9231000D01*
X2846524Y-9240524D01*
X2856048Y-9259571D01*
X2865571Y-9297667D01*
X2865571Y-9345286D01*
X2856048Y-9383381D01*
X2846524Y-9402429D01*
X2837000Y-9411952D01*
X2817952Y-9421476D01*
X2798905Y-9421476D01*
X2779857Y-9411952D01*
X2770333Y-9402429D01*
X2760810Y-9383381D01*
X2751286Y-9345286D01*
X2751286Y-9297667D01*
X2760810Y-9259571D01*
X2770333Y-9240524D01*
X2779857Y-9231000D01*
X2798905Y-9221476D01*
X2989381Y-9221476D02*
X3008428Y-9221476D01*
X3027476Y-9231000D01*
X3037000Y-9240524D01*
X3046524Y-9259571D01*
X3056048Y-9297667D01*
X3056048Y-9345286D01*
X3046524Y-9383381D01*
X3037000Y-9402429D01*
X3027476Y-9411952D01*
X3008428Y-9421476D01*
X2989381Y-9421476D01*
X2970333Y-9411952D01*
X2960809Y-9402429D01*
X2951286Y-9383381D01*
X2941762Y-9345286D01*
X2941762Y-9297667D01*
X2951286Y-9259571D01*
X2960809Y-9240524D01*
X2970333Y-9231000D01*
X2989381Y-9221476D01*
X3141762Y-9421476D02*
X3141762Y-9288143D01*
X3141762Y-9307190D02*
X3151286Y-9297667D01*
X3170333Y-9288143D01*
X3198905Y-9288143D01*
X3217952Y-9297667D01*
X3227476Y-9316714D01*
X3227476Y-9421476D01*
X3227476Y-9316714D02*
X3237000Y-9297667D01*
X3256048Y-9288143D01*
X3284619Y-9288143D01*
X3303667Y-9297667D01*
X3313190Y-9316714D01*
X3313190Y-9421476D01*
X3408428Y-9421476D02*
X3408428Y-9288143D01*
X3408428Y-9307190D02*
X3417952Y-9297667D01*
X3437000Y-9288143D01*
X3465571Y-9288143D01*
X3484619Y-9297667D01*
X3494143Y-9316714D01*
X3494143Y-9421476D01*
X3494143Y-9316714D02*
X3503667Y-9297667D01*
X3522714Y-9288143D01*
X3551286Y-9288143D01*
X3570333Y-9297667D01*
X3579857Y-9316714D01*
X3579857Y-9421476D01*
X3970333Y-9211952D02*
X3798905Y-9469095D01*
X4227476Y-9221476D02*
X4246524Y-9221476D01*
X4265571Y-9231000D01*
X4275095Y-9240524D01*
X4284619Y-9259571D01*
X4294143Y-9297667D01*
X4294143Y-9345286D01*
X4284619Y-9383381D01*
X4275095Y-9402429D01*
X4265571Y-9411952D01*
X4246524Y-9421476D01*
X4227476Y-9421476D01*
X4208429Y-9411952D01*
X4198905Y-9402429D01*
X4189381Y-9383381D01*
X4179857Y-9345286D01*
X4179857Y-9297667D01*
X4189381Y-9259571D01*
X4198905Y-9240524D01*
X4208429Y-9231000D01*
X4227476Y-9221476D01*
X4379857Y-9402429D02*
X4389381Y-9411952D01*
X4379857Y-9421476D01*
X4370333Y-9411952D01*
X4379857Y-9402429D01*
X4379857Y-9421476D01*
X4513190Y-9221476D02*
X4532238Y-9221476D01*
X4551286Y-9231000D01*
X4560810Y-9240524D01*
X4570333Y-9259571D01*
X4579857Y-9297667D01*
X4579857Y-9345286D01*
X4570333Y-9383381D01*
X4560810Y-9402429D01*
X4551286Y-9411952D01*
X4532238Y-9421476D01*
X4513190Y-9421476D01*
X4494143Y-9411952D01*
X4484619Y-9402429D01*
X4475095Y-9383381D01*
X4465571Y-9345286D01*
X4465571Y-9297667D01*
X4475095Y-9259571D01*
X4484619Y-9240524D01*
X4494143Y-9231000D01*
X4513190Y-9221476D01*
X4646524Y-9221476D02*
X4770333Y-9221476D01*
X4703667Y-9297667D01*
X4732238Y-9297667D01*
X4751286Y-9307190D01*
X4760810Y-9316714D01*
X4770333Y-9335762D01*
X4770333Y-9383381D01*
X4760810Y-9402429D01*
X4751286Y-9411952D01*
X4732238Y-9421476D01*
X4675095Y-9421476D01*
X4656048Y-9411952D01*
X4646524Y-9402429D01*
X4865571Y-9421476D02*
X4903667Y-9421476D01*
X4922714Y-9411952D01*
X4932238Y-9402429D01*
X4951286Y-9373857D01*
X4960810Y-9335762D01*
X4960810Y-9259571D01*
X4951286Y-9240524D01*
X4941762Y-9231000D01*
X4922714Y-9221476D01*
X4884619Y-9221476D01*
X4865571Y-9231000D01*
X4856048Y-9240524D01*
X4846524Y-9259571D01*
X4846524Y-9307190D01*
X4856048Y-9326238D01*
X4865571Y-9335762D01*
X4884619Y-9345286D01*
X4922714Y-9345286D01*
X4941762Y-9335762D01*
X4951286Y-9326238D01*
X4960810Y-9307190D01*
X5132238Y-9288143D02*
X5132238Y-9421476D01*
X5084619Y-9211952D02*
X5037000Y-9354810D01*
X5160810Y-9354810D01*
X5227476Y-9221476D02*
X5227476Y-9259571D01*
X5303667Y-9221476D02*
X5303667Y-9259571D01*
X5598905Y-9497667D02*
X5589381Y-9488143D01*
X5570333Y-9459571D01*
X5560810Y-9440524D01*
X5551286Y-9411952D01*
X5541762Y-9364333D01*
X5541762Y-9326238D01*
X5551286Y-9278619D01*
X5560810Y-9250048D01*
X5570333Y-9231000D01*
X5589381Y-9202429D01*
X5598905Y-9192905D01*
X5779857Y-9421476D02*
X5665571Y-9421476D01*
X5722714Y-9421476D02*
X5722714Y-9221476D01*
X5703667Y-9250048D01*
X5684619Y-9269095D01*
X5665571Y-9278619D01*
X5903667Y-9221476D02*
X5922714Y-9221476D01*
X5941762Y-9231000D01*
X5951286Y-9240524D01*
X5960809Y-9259571D01*
X5970333Y-9297667D01*
X5970333Y-9345286D01*
X5960809Y-9383381D01*
X5951286Y-9402429D01*
X5941762Y-9411952D01*
X5922714Y-9421476D01*
X5903667Y-9421476D01*
X5884619Y-9411952D01*
X5875095Y-9402429D01*
X5865571Y-9383381D01*
X5856048Y-9345286D01*
X5856048Y-9297667D01*
X5865571Y-9259571D01*
X5875095Y-9240524D01*
X5884619Y-9231000D01*
X5903667Y-9221476D01*
X6208428Y-9421476D02*
X6208428Y-9221476D01*
X6294143Y-9421476D02*
X6294143Y-9316714D01*
X6284619Y-9297667D01*
X6265571Y-9288143D01*
X6237000Y-9288143D01*
X6217952Y-9297667D01*
X6208428Y-9307190D01*
X6417952Y-9421476D02*
X6398905Y-9411952D01*
X6389381Y-9402429D01*
X6379857Y-9383381D01*
X6379857Y-9326238D01*
X6389381Y-9307190D01*
X6398905Y-9297667D01*
X6417952Y-9288143D01*
X6446524Y-9288143D01*
X6465571Y-9297667D01*
X6475095Y-9307190D01*
X6484619Y-9326238D01*
X6484619Y-9383381D01*
X6475095Y-9402429D01*
X6465571Y-9411952D01*
X6446524Y-9421476D01*
X6417952Y-9421476D01*
X6598905Y-9421476D02*
X6579857Y-9411952D01*
X6570333Y-9392905D01*
X6570333Y-9221476D01*
X6751286Y-9411952D02*
X6732238Y-9421476D01*
X6694143Y-9421476D01*
X6675095Y-9411952D01*
X6665571Y-9392905D01*
X6665571Y-9316714D01*
X6675095Y-9297667D01*
X6694143Y-9288143D01*
X6732238Y-9288143D01*
X6751286Y-9297667D01*
X6760809Y-9316714D01*
X6760809Y-9335762D01*
X6665571Y-9354810D01*
X6837000Y-9411952D02*
X6856048Y-9421476D01*
X6894143Y-9421476D01*
X6913190Y-9411952D01*
X6922714Y-9392905D01*
X6922714Y-9383381D01*
X6913190Y-9364333D01*
X6894143Y-9354810D01*
X6865571Y-9354810D01*
X6846524Y-9345286D01*
X6837000Y-9326238D01*
X6837000Y-9316714D01*
X6846524Y-9297667D01*
X6865571Y-9288143D01*
X6894143Y-9288143D01*
X6913190Y-9297667D01*
X6989381Y-9497667D02*
X6998905Y-9488143D01*
X7017952Y-9459571D01*
X7027476Y-9440524D01*
X7037000Y-9411952D01*
X7046524Y-9364333D01*
X7046524Y-9326238D01*
X7037000Y-9278619D01*
X7027476Y-9250048D01*
X7017952Y-9231000D01*
X6998905Y-9202429D01*
X6989381Y-9192905D01*
D16*
X1917000Y-9540000D02*
X2027000Y-9650000D01*
X2027000Y-9540000D02*
X1917000Y-9650000D01*
X1972000Y-9540000D02*
X1972000Y-9650000D01*
X1917000Y-9595000D02*
X2027000Y-9595000D01*
D11*
X2389381Y-9685476D02*
X2275095Y-9685476D01*
X2332238Y-9685476D02*
X2332238Y-9485476D01*
X2313190Y-9514048D01*
X2294143Y-9533095D01*
X2275095Y-9542619D01*
X2475095Y-9666429D02*
X2484619Y-9675952D01*
X2475095Y-9685476D01*
X2465571Y-9675952D01*
X2475095Y-9666429D01*
X2475095Y-9685476D01*
X2675095Y-9685476D02*
X2560810Y-9685476D01*
X2617952Y-9685476D02*
X2617952Y-9485476D01*
X2598905Y-9514048D01*
X2579857Y-9533095D01*
X2560810Y-9542619D01*
X2798905Y-9485476D02*
X2817952Y-9485476D01*
X2837000Y-9495000D01*
X2846524Y-9504524D01*
X2856048Y-9523571D01*
X2865571Y-9561667D01*
X2865571Y-9609286D01*
X2856048Y-9647381D01*
X2846524Y-9666429D01*
X2837000Y-9675952D01*
X2817952Y-9685476D01*
X2798905Y-9685476D01*
X2779857Y-9675952D01*
X2770333Y-9666429D01*
X2760810Y-9647381D01*
X2751286Y-9609286D01*
X2751286Y-9561667D01*
X2760810Y-9523571D01*
X2770333Y-9504524D01*
X2779857Y-9495000D01*
X2798905Y-9485476D01*
X2989381Y-9485476D02*
X3008428Y-9485476D01*
X3027476Y-9495000D01*
X3037000Y-9504524D01*
X3046524Y-9523571D01*
X3056048Y-9561667D01*
X3056048Y-9609286D01*
X3046524Y-9647381D01*
X3037000Y-9666429D01*
X3027476Y-9675952D01*
X3008428Y-9685476D01*
X2989381Y-9685476D01*
X2970333Y-9675952D01*
X2960809Y-9666429D01*
X2951286Y-9647381D01*
X2941762Y-9609286D01*
X2941762Y-9561667D01*
X2951286Y-9523571D01*
X2960809Y-9504524D01*
X2970333Y-9495000D01*
X2989381Y-9485476D01*
X3141762Y-9685476D02*
X3141762Y-9552143D01*
X3141762Y-9571190D02*
X3151286Y-9561667D01*
X3170333Y-9552143D01*
X3198905Y-9552143D01*
X3217952Y-9561667D01*
X3227476Y-9580714D01*
X3227476Y-9685476D01*
X3227476Y-9580714D02*
X3237000Y-9561667D01*
X3256048Y-9552143D01*
X3284619Y-9552143D01*
X3303667Y-9561667D01*
X3313190Y-9580714D01*
X3313190Y-9685476D01*
X3408428Y-9685476D02*
X3408428Y-9552143D01*
X3408428Y-9571190D02*
X3417952Y-9561667D01*
X3437000Y-9552143D01*
X3465571Y-9552143D01*
X3484619Y-9561667D01*
X3494143Y-9580714D01*
X3494143Y-9685476D01*
X3494143Y-9580714D02*
X3503667Y-9561667D01*
X3522714Y-9552143D01*
X3551286Y-9552143D01*
X3570333Y-9561667D01*
X3579857Y-9580714D01*
X3579857Y-9685476D01*
X3970333Y-9475952D02*
X3798905Y-9733095D01*
X4227476Y-9485476D02*
X4246524Y-9485476D01*
X4265571Y-9495000D01*
X4275095Y-9504524D01*
X4284619Y-9523571D01*
X4294143Y-9561667D01*
X4294143Y-9609286D01*
X4284619Y-9647381D01*
X4275095Y-9666429D01*
X4265571Y-9675952D01*
X4246524Y-9685476D01*
X4227476Y-9685476D01*
X4208429Y-9675952D01*
X4198905Y-9666429D01*
X4189381Y-9647381D01*
X4179857Y-9609286D01*
X4179857Y-9561667D01*
X4189381Y-9523571D01*
X4198905Y-9504524D01*
X4208429Y-9495000D01*
X4227476Y-9485476D01*
X4379857Y-9666429D02*
X4389381Y-9675952D01*
X4379857Y-9685476D01*
X4370333Y-9675952D01*
X4379857Y-9666429D01*
X4379857Y-9685476D01*
X4513190Y-9485476D02*
X4532238Y-9485476D01*
X4551286Y-9495000D01*
X4560810Y-9504524D01*
X4570333Y-9523571D01*
X4579857Y-9561667D01*
X4579857Y-9609286D01*
X4570333Y-9647381D01*
X4560810Y-9666429D01*
X4551286Y-9675952D01*
X4532238Y-9685476D01*
X4513190Y-9685476D01*
X4494143Y-9675952D01*
X4484619Y-9666429D01*
X4475095Y-9647381D01*
X4465571Y-9609286D01*
X4465571Y-9561667D01*
X4475095Y-9523571D01*
X4484619Y-9504524D01*
X4494143Y-9495000D01*
X4513190Y-9485476D01*
X4751286Y-9552143D02*
X4751286Y-9685476D01*
X4703667Y-9475952D02*
X4656048Y-9618810D01*
X4779857Y-9618810D01*
X4837000Y-9485476D02*
X4960810Y-9485476D01*
X4894143Y-9561667D01*
X4922714Y-9561667D01*
X4941762Y-9571190D01*
X4951286Y-9580714D01*
X4960810Y-9599762D01*
X4960810Y-9647381D01*
X4951286Y-9666429D01*
X4941762Y-9675952D01*
X4922714Y-9685476D01*
X4865571Y-9685476D01*
X4846524Y-9675952D01*
X4837000Y-9666429D01*
X5027476Y-9485476D02*
X5151286Y-9485476D01*
X5084619Y-9561667D01*
X5113190Y-9561667D01*
X5132238Y-9571190D01*
X5141762Y-9580714D01*
X5151286Y-9599762D01*
X5151286Y-9647381D01*
X5141762Y-9666429D01*
X5132238Y-9675952D01*
X5113190Y-9685476D01*
X5056048Y-9685476D01*
X5037000Y-9675952D01*
X5027476Y-9666429D01*
X5227476Y-9485476D02*
X5227476Y-9523571D01*
X5303667Y-9485476D02*
X5303667Y-9523571D01*
X5598905Y-9761667D02*
X5589381Y-9752143D01*
X5570333Y-9723571D01*
X5560810Y-9704524D01*
X5551286Y-9675952D01*
X5541762Y-9628333D01*
X5541762Y-9590238D01*
X5551286Y-9542619D01*
X5560810Y-9514048D01*
X5570333Y-9495000D01*
X5589381Y-9466429D01*
X5598905Y-9456905D01*
X5703667Y-9571190D02*
X5684619Y-9561667D01*
X5675095Y-9552143D01*
X5665571Y-9533095D01*
X5665571Y-9523571D01*
X5675095Y-9504524D01*
X5684619Y-9495000D01*
X5703667Y-9485476D01*
X5741762Y-9485476D01*
X5760809Y-9495000D01*
X5770333Y-9504524D01*
X5779857Y-9523571D01*
X5779857Y-9533095D01*
X5770333Y-9552143D01*
X5760809Y-9561667D01*
X5741762Y-9571190D01*
X5703667Y-9571190D01*
X5684619Y-9580714D01*
X5675095Y-9590238D01*
X5665571Y-9609286D01*
X5665571Y-9647381D01*
X5675095Y-9666429D01*
X5684619Y-9675952D01*
X5703667Y-9685476D01*
X5741762Y-9685476D01*
X5760809Y-9675952D01*
X5770333Y-9666429D01*
X5779857Y-9647381D01*
X5779857Y-9609286D01*
X5770333Y-9590238D01*
X5760809Y-9580714D01*
X5741762Y-9571190D01*
X6017952Y-9685476D02*
X6017952Y-9485476D01*
X6103667Y-9685476D02*
X6103667Y-9580714D01*
X6094143Y-9561667D01*
X6075095Y-9552143D01*
X6046524Y-9552143D01*
X6027476Y-9561667D01*
X6017952Y-9571190D01*
X6227476Y-9685476D02*
X6208428Y-9675952D01*
X6198905Y-9666429D01*
X6189381Y-9647381D01*
X6189381Y-9590238D01*
X6198905Y-9571190D01*
X6208428Y-9561667D01*
X6227476Y-9552143D01*
X6256048Y-9552143D01*
X6275095Y-9561667D01*
X6284619Y-9571190D01*
X6294143Y-9590238D01*
X6294143Y-9647381D01*
X6284619Y-9666429D01*
X6275095Y-9675952D01*
X6256048Y-9685476D01*
X6227476Y-9685476D01*
X6408428Y-9685476D02*
X6389381Y-9675952D01*
X6379857Y-9656905D01*
X6379857Y-9485476D01*
X6560809Y-9675952D02*
X6541762Y-9685476D01*
X6503667Y-9685476D01*
X6484619Y-9675952D01*
X6475095Y-9656905D01*
X6475095Y-9580714D01*
X6484619Y-9561667D01*
X6503667Y-9552143D01*
X6541762Y-9552143D01*
X6560809Y-9561667D01*
X6570333Y-9580714D01*
X6570333Y-9599762D01*
X6475095Y-9618810D01*
X6646524Y-9675952D02*
X6665571Y-9685476D01*
X6703667Y-9685476D01*
X6722714Y-9675952D01*
X6732238Y-9656905D01*
X6732238Y-9647381D01*
X6722714Y-9628333D01*
X6703667Y-9618810D01*
X6675095Y-9618810D01*
X6656048Y-9609286D01*
X6646524Y-9590238D01*
X6646524Y-9580714D01*
X6656048Y-9561667D01*
X6675095Y-9552143D01*
X6703667Y-9552143D01*
X6722714Y-9561667D01*
X6798905Y-9761667D02*
X6808428Y-9752143D01*
X6827476Y-9723571D01*
X6837000Y-9704524D01*
X6846524Y-9675952D01*
X6856048Y-9628333D01*
X6856048Y-9590238D01*
X6846524Y-9542619D01*
X6837000Y-9514048D01*
X6827476Y-9495000D01*
X6808428Y-9466429D01*
X6798905Y-9456905D01*
D17*
X1875000Y-9783000D02*
X2027000Y-9935000D01*
X2027000Y-9783000D02*
X1875000Y-9935000D01*
X2004741Y-9912741D02*
X2004741Y-9805259D01*
X1897259Y-9805259D01*
X1897259Y-9912741D01*
X2004741Y-9912741D01*
D11*
X2389381Y-9949476D02*
X2275095Y-9949476D01*
X2332238Y-9949476D02*
X2332238Y-9749476D01*
X2313190Y-9778048D01*
X2294143Y-9797095D01*
X2275095Y-9806619D01*
X2475095Y-9930429D02*
X2484619Y-9939952D01*
X2475095Y-9949476D01*
X2465571Y-9939952D01*
X2475095Y-9930429D01*
X2475095Y-9949476D01*
X2665571Y-9749476D02*
X2570333Y-9749476D01*
X2560810Y-9844714D01*
X2570333Y-9835190D01*
X2589381Y-9825667D01*
X2637000Y-9825667D01*
X2656048Y-9835190D01*
X2665571Y-9844714D01*
X2675095Y-9863762D01*
X2675095Y-9911381D01*
X2665571Y-9930429D01*
X2656048Y-9939952D01*
X2637000Y-9949476D01*
X2589381Y-9949476D01*
X2570333Y-9939952D01*
X2560810Y-9930429D01*
X2751286Y-9768524D02*
X2760810Y-9759000D01*
X2779857Y-9749476D01*
X2827476Y-9749476D01*
X2846524Y-9759000D01*
X2856048Y-9768524D01*
X2865571Y-9787571D01*
X2865571Y-9806619D01*
X2856048Y-9835190D01*
X2741762Y-9949476D01*
X2865571Y-9949476D01*
X2989381Y-9749476D02*
X3008428Y-9749476D01*
X3027476Y-9759000D01*
X3037000Y-9768524D01*
X3046524Y-9787571D01*
X3056048Y-9825667D01*
X3056048Y-9873286D01*
X3046524Y-9911381D01*
X3037000Y-9930429D01*
X3027476Y-9939952D01*
X3008428Y-9949476D01*
X2989381Y-9949476D01*
X2970333Y-9939952D01*
X2960809Y-9930429D01*
X2951286Y-9911381D01*
X2941762Y-9873286D01*
X2941762Y-9825667D01*
X2951286Y-9787571D01*
X2960809Y-9768524D01*
X2970333Y-9759000D01*
X2989381Y-9749476D01*
X3141762Y-9949476D02*
X3141762Y-9816143D01*
X3141762Y-9835190D02*
X3151286Y-9825667D01*
X3170333Y-9816143D01*
X3198905Y-9816143D01*
X3217952Y-9825667D01*
X3227476Y-9844714D01*
X3227476Y-9949476D01*
X3227476Y-9844714D02*
X3237000Y-9825667D01*
X3256048Y-9816143D01*
X3284619Y-9816143D01*
X3303667Y-9825667D01*
X3313190Y-9844714D01*
X3313190Y-9949476D01*
X3408428Y-9949476D02*
X3408428Y-9816143D01*
X3408428Y-9835190D02*
X3417952Y-9825667D01*
X3437000Y-9816143D01*
X3465571Y-9816143D01*
X3484619Y-9825667D01*
X3494143Y-9844714D01*
X3494143Y-9949476D01*
X3494143Y-9844714D02*
X3503667Y-9825667D01*
X3522714Y-9816143D01*
X3551286Y-9816143D01*
X3570333Y-9825667D01*
X3579857Y-9844714D01*
X3579857Y-9949476D01*
X3970333Y-9739952D02*
X3798905Y-9997095D01*
X4227476Y-9749476D02*
X4246524Y-9749476D01*
X4265571Y-9759000D01*
X4275095Y-9768524D01*
X4284619Y-9787571D01*
X4294143Y-9825667D01*
X4294143Y-9873286D01*
X4284619Y-9911381D01*
X4275095Y-9930429D01*
X4265571Y-9939952D01*
X4246524Y-9949476D01*
X4227476Y-9949476D01*
X4208429Y-9939952D01*
X4198905Y-9930429D01*
X4189381Y-9911381D01*
X4179857Y-9873286D01*
X4179857Y-9825667D01*
X4189381Y-9787571D01*
X4198905Y-9768524D01*
X4208429Y-9759000D01*
X4227476Y-9749476D01*
X4379857Y-9930429D02*
X4389381Y-9939952D01*
X4379857Y-9949476D01*
X4370333Y-9939952D01*
X4379857Y-9930429D01*
X4379857Y-9949476D01*
X4513190Y-9749476D02*
X4532238Y-9749476D01*
X4551286Y-9759000D01*
X4560810Y-9768524D01*
X4570333Y-9787571D01*
X4579857Y-9825667D01*
X4579857Y-9873286D01*
X4570333Y-9911381D01*
X4560810Y-9930429D01*
X4551286Y-9939952D01*
X4532238Y-9949476D01*
X4513190Y-9949476D01*
X4494143Y-9939952D01*
X4484619Y-9930429D01*
X4475095Y-9911381D01*
X4465571Y-9873286D01*
X4465571Y-9825667D01*
X4475095Y-9787571D01*
X4484619Y-9768524D01*
X4494143Y-9759000D01*
X4513190Y-9749476D01*
X4760810Y-9749476D02*
X4665571Y-9749476D01*
X4656048Y-9844714D01*
X4665571Y-9835190D01*
X4684619Y-9825667D01*
X4732238Y-9825667D01*
X4751286Y-9835190D01*
X4760810Y-9844714D01*
X4770333Y-9863762D01*
X4770333Y-9911381D01*
X4760810Y-9930429D01*
X4751286Y-9939952D01*
X4732238Y-9949476D01*
X4684619Y-9949476D01*
X4665571Y-9939952D01*
X4656048Y-9930429D01*
X4865571Y-9949476D02*
X4903667Y-9949476D01*
X4922714Y-9939952D01*
X4932238Y-9930429D01*
X4951286Y-9901857D01*
X4960810Y-9863762D01*
X4960810Y-9787571D01*
X4951286Y-9768524D01*
X4941762Y-9759000D01*
X4922714Y-9749476D01*
X4884619Y-9749476D01*
X4865571Y-9759000D01*
X4856048Y-9768524D01*
X4846524Y-9787571D01*
X4846524Y-9835190D01*
X4856048Y-9854238D01*
X4865571Y-9863762D01*
X4884619Y-9873286D01*
X4922714Y-9873286D01*
X4941762Y-9863762D01*
X4951286Y-9854238D01*
X4960810Y-9835190D01*
X5075095Y-9835190D02*
X5056048Y-9825667D01*
X5046524Y-9816143D01*
X5037000Y-9797095D01*
X5037000Y-9787571D01*
X5046524Y-9768524D01*
X5056048Y-9759000D01*
X5075095Y-9749476D01*
X5113190Y-9749476D01*
X5132238Y-9759000D01*
X5141762Y-9768524D01*
X5151286Y-9787571D01*
X5151286Y-9797095D01*
X5141762Y-9816143D01*
X5132238Y-9825667D01*
X5113190Y-9835190D01*
X5075095Y-9835190D01*
X5056048Y-9844714D01*
X5046524Y-9854238D01*
X5037000Y-9873286D01*
X5037000Y-9911381D01*
X5046524Y-9930429D01*
X5056048Y-9939952D01*
X5075095Y-9949476D01*
X5113190Y-9949476D01*
X5132238Y-9939952D01*
X5141762Y-9930429D01*
X5151286Y-9911381D01*
X5151286Y-9873286D01*
X5141762Y-9854238D01*
X5132238Y-9844714D01*
X5113190Y-9835190D01*
X5227476Y-9749476D02*
X5227476Y-9787571D01*
X5303667Y-9749476D02*
X5303667Y-9787571D01*
X5598905Y-10025667D02*
X5589381Y-10016143D01*
X5570333Y-9987571D01*
X5560810Y-9968524D01*
X5551286Y-9939952D01*
X5541762Y-9892333D01*
X5541762Y-9854238D01*
X5551286Y-9806619D01*
X5560810Y-9778048D01*
X5570333Y-9759000D01*
X5589381Y-9730429D01*
X5598905Y-9720905D01*
X5665571Y-9768524D02*
X5675095Y-9759000D01*
X5694143Y-9749476D01*
X5741762Y-9749476D01*
X5760809Y-9759000D01*
X5770333Y-9768524D01*
X5779857Y-9787571D01*
X5779857Y-9806619D01*
X5770333Y-9835190D01*
X5656048Y-9949476D01*
X5779857Y-9949476D01*
X6017952Y-9949476D02*
X6017952Y-9749476D01*
X6103667Y-9949476D02*
X6103667Y-9844714D01*
X6094143Y-9825667D01*
X6075095Y-9816143D01*
X6046524Y-9816143D01*
X6027476Y-9825667D01*
X6017952Y-9835190D01*
X6227476Y-9949476D02*
X6208428Y-9939952D01*
X6198905Y-9930429D01*
X6189381Y-9911381D01*
X6189381Y-9854238D01*
X6198905Y-9835190D01*
X6208428Y-9825667D01*
X6227476Y-9816143D01*
X6256048Y-9816143D01*
X6275095Y-9825667D01*
X6284619Y-9835190D01*
X6294143Y-9854238D01*
X6294143Y-9911381D01*
X6284619Y-9930429D01*
X6275095Y-9939952D01*
X6256048Y-9949476D01*
X6227476Y-9949476D01*
X6408428Y-9949476D02*
X6389381Y-9939952D01*
X6379857Y-9920905D01*
X6379857Y-9749476D01*
X6560809Y-9939952D02*
X6541762Y-9949476D01*
X6503667Y-9949476D01*
X6484619Y-9939952D01*
X6475095Y-9920905D01*
X6475095Y-9844714D01*
X6484619Y-9825667D01*
X6503667Y-9816143D01*
X6541762Y-9816143D01*
X6560809Y-9825667D01*
X6570333Y-9844714D01*
X6570333Y-9863762D01*
X6475095Y-9882810D01*
X6646524Y-9939952D02*
X6665571Y-9949476D01*
X6703667Y-9949476D01*
X6722714Y-9939952D01*
X6732238Y-9920905D01*
X6732238Y-9911381D01*
X6722714Y-9892333D01*
X6703667Y-9882810D01*
X6675095Y-9882810D01*
X6656048Y-9873286D01*
X6646524Y-9854238D01*
X6646524Y-9844714D01*
X6656048Y-9825667D01*
X6675095Y-9816143D01*
X6703667Y-9816143D01*
X6722714Y-9825667D01*
X6798905Y-10025667D02*
X6808428Y-10016143D01*
X6827476Y-9987571D01*
X6837000Y-9968524D01*
X6846524Y-9939952D01*
X6856048Y-9892333D01*
X6856048Y-9854238D01*
X6846524Y-9806619D01*
X6837000Y-9778048D01*
X6827476Y-9759000D01*
X6808428Y-9730429D01*
X6798905Y-9720905D01*
X1827000Y-10031000D02*
X2027000Y-10231000D01*
X2027000Y-10031000D02*
X1827000Y-10231000D01*
X1927000Y-10231000D02*
X2027000Y-10131000D01*
X1927000Y-10031000D01*
X1827000Y-10131000D01*
X1927000Y-10231000D01*
X2265571Y-10021476D02*
X2389381Y-10021476D01*
X2322714Y-10097667D01*
X2351286Y-10097667D01*
X2370333Y-10107190D01*
X2379857Y-10116714D01*
X2389381Y-10135762D01*
X2389381Y-10183381D01*
X2379857Y-10202429D01*
X2370333Y-10211952D01*
X2351286Y-10221476D01*
X2294143Y-10221476D01*
X2275095Y-10211952D01*
X2265571Y-10202429D01*
X2475095Y-10202429D02*
X2484619Y-10211952D01*
X2475095Y-10221476D01*
X2465571Y-10211952D01*
X2475095Y-10202429D01*
X2475095Y-10221476D01*
X2560810Y-10040524D02*
X2570333Y-10031000D01*
X2589381Y-10021476D01*
X2637000Y-10021476D01*
X2656048Y-10031000D01*
X2665571Y-10040524D01*
X2675095Y-10059571D01*
X2675095Y-10078619D01*
X2665571Y-10107190D01*
X2551286Y-10221476D01*
X2675095Y-10221476D01*
X2798905Y-10021476D02*
X2817952Y-10021476D01*
X2837000Y-10031000D01*
X2846524Y-10040524D01*
X2856048Y-10059571D01*
X2865571Y-10097667D01*
X2865571Y-10145286D01*
X2856048Y-10183381D01*
X2846524Y-10202429D01*
X2837000Y-10211952D01*
X2817952Y-10221476D01*
X2798905Y-10221476D01*
X2779857Y-10211952D01*
X2770333Y-10202429D01*
X2760810Y-10183381D01*
X2751286Y-10145286D01*
X2751286Y-10097667D01*
X2760810Y-10059571D01*
X2770333Y-10040524D01*
X2779857Y-10031000D01*
X2798905Y-10021476D01*
X2989381Y-10021476D02*
X3008428Y-10021476D01*
X3027476Y-10031000D01*
X3037000Y-10040524D01*
X3046524Y-10059571D01*
X3056048Y-10097667D01*
X3056048Y-10145286D01*
X3046524Y-10183381D01*
X3037000Y-10202429D01*
X3027476Y-10211952D01*
X3008428Y-10221476D01*
X2989381Y-10221476D01*
X2970333Y-10211952D01*
X2960809Y-10202429D01*
X2951286Y-10183381D01*
X2941762Y-10145286D01*
X2941762Y-10097667D01*
X2951286Y-10059571D01*
X2960809Y-10040524D01*
X2970333Y-10031000D01*
X2989381Y-10021476D01*
X3141762Y-10221476D02*
X3141762Y-10088143D01*
X3141762Y-10107190D02*
X3151286Y-10097667D01*
X3170333Y-10088143D01*
X3198905Y-10088143D01*
X3217952Y-10097667D01*
X3227476Y-10116714D01*
X3227476Y-10221476D01*
X3227476Y-10116714D02*
X3237000Y-10097667D01*
X3256048Y-10088143D01*
X3284619Y-10088143D01*
X3303667Y-10097667D01*
X3313190Y-10116714D01*
X3313190Y-10221476D01*
X3408428Y-10221476D02*
X3408428Y-10088143D01*
X3408428Y-10107190D02*
X3417952Y-10097667D01*
X3437000Y-10088143D01*
X3465571Y-10088143D01*
X3484619Y-10097667D01*
X3494143Y-10116714D01*
X3494143Y-10221476D01*
X3494143Y-10116714D02*
X3503667Y-10097667D01*
X3522714Y-10088143D01*
X3551286Y-10088143D01*
X3570333Y-10097667D01*
X3579857Y-10116714D01*
X3579857Y-10221476D01*
X3970333Y-10011952D02*
X3798905Y-10269095D01*
X4227476Y-10021476D02*
X4246524Y-10021476D01*
X4265571Y-10031000D01*
X4275095Y-10040524D01*
X4284619Y-10059571D01*
X4294143Y-10097667D01*
X4294143Y-10145286D01*
X4284619Y-10183381D01*
X4275095Y-10202429D01*
X4265571Y-10211952D01*
X4246524Y-10221476D01*
X4227476Y-10221476D01*
X4208429Y-10211952D01*
X4198905Y-10202429D01*
X4189381Y-10183381D01*
X4179857Y-10145286D01*
X4179857Y-10097667D01*
X4189381Y-10059571D01*
X4198905Y-10040524D01*
X4208429Y-10031000D01*
X4227476Y-10021476D01*
X4379857Y-10202429D02*
X4389381Y-10211952D01*
X4379857Y-10221476D01*
X4370333Y-10211952D01*
X4379857Y-10202429D01*
X4379857Y-10221476D01*
X4579857Y-10221476D02*
X4465571Y-10221476D01*
X4522714Y-10221476D02*
X4522714Y-10021476D01*
X4503667Y-10050048D01*
X4484619Y-10069095D01*
X4465571Y-10078619D01*
X4656048Y-10040524D02*
X4665571Y-10031000D01*
X4684619Y-10021476D01*
X4732238Y-10021476D01*
X4751286Y-10031000D01*
X4760810Y-10040524D01*
X4770333Y-10059571D01*
X4770333Y-10078619D01*
X4760810Y-10107190D01*
X4646524Y-10221476D01*
X4770333Y-10221476D01*
X4941762Y-10021476D02*
X4903667Y-10021476D01*
X4884619Y-10031000D01*
X4875095Y-10040524D01*
X4856048Y-10069095D01*
X4846524Y-10107190D01*
X4846524Y-10183381D01*
X4856048Y-10202429D01*
X4865571Y-10211952D01*
X4884619Y-10221476D01*
X4922714Y-10221476D01*
X4941762Y-10211952D01*
X4951286Y-10202429D01*
X4960810Y-10183381D01*
X4960810Y-10135762D01*
X4951286Y-10116714D01*
X4941762Y-10107190D01*
X4922714Y-10097667D01*
X4884619Y-10097667D01*
X4865571Y-10107190D01*
X4856048Y-10116714D01*
X4846524Y-10135762D01*
X5084619Y-10021476D02*
X5103667Y-10021476D01*
X5122714Y-10031000D01*
X5132238Y-10040524D01*
X5141762Y-10059571D01*
X5151286Y-10097667D01*
X5151286Y-10145286D01*
X5141762Y-10183381D01*
X5132238Y-10202429D01*
X5122714Y-10211952D01*
X5103667Y-10221476D01*
X5084619Y-10221476D01*
X5065571Y-10211952D01*
X5056048Y-10202429D01*
X5046524Y-10183381D01*
X5037000Y-10145286D01*
X5037000Y-10097667D01*
X5046524Y-10059571D01*
X5056048Y-10040524D01*
X5065571Y-10031000D01*
X5084619Y-10021476D01*
X5227476Y-10021476D02*
X5227476Y-10059571D01*
X5303667Y-10021476D02*
X5303667Y-10059571D01*
X5598905Y-10297667D02*
X5589381Y-10288143D01*
X5570333Y-10259571D01*
X5560810Y-10240524D01*
X5551286Y-10211952D01*
X5541762Y-10164333D01*
X5541762Y-10126238D01*
X5551286Y-10078619D01*
X5560810Y-10050048D01*
X5570333Y-10031000D01*
X5589381Y-10002429D01*
X5598905Y-9992905D01*
X5760809Y-10088143D02*
X5760809Y-10221476D01*
X5713190Y-10011952D02*
X5665571Y-10154810D01*
X5789381Y-10154810D01*
X6017952Y-10221476D02*
X6017952Y-10021476D01*
X6103667Y-10221476D02*
X6103667Y-10116714D01*
X6094143Y-10097667D01*
X6075095Y-10088143D01*
X6046524Y-10088143D01*
X6027476Y-10097667D01*
X6017952Y-10107190D01*
X6227476Y-10221476D02*
X6208428Y-10211952D01*
X6198905Y-10202429D01*
X6189381Y-10183381D01*
X6189381Y-10126238D01*
X6198905Y-10107190D01*
X6208428Y-10097667D01*
X6227476Y-10088143D01*
X6256048Y-10088143D01*
X6275095Y-10097667D01*
X6284619Y-10107190D01*
X6294143Y-10126238D01*
X6294143Y-10183381D01*
X6284619Y-10202429D01*
X6275095Y-10211952D01*
X6256048Y-10221476D01*
X6227476Y-10221476D01*
X6408428Y-10221476D02*
X6389381Y-10211952D01*
X6379857Y-10192905D01*
X6379857Y-10021476D01*
X6560809Y-10211952D02*
X6541762Y-10221476D01*
X6503667Y-10221476D01*
X6484619Y-10211952D01*
X6475095Y-10192905D01*
X6475095Y-10116714D01*
X6484619Y-10097667D01*
X6503667Y-10088143D01*
X6541762Y-10088143D01*
X6560809Y-10097667D01*
X6570333Y-10116714D01*
X6570333Y-10135762D01*
X6475095Y-10154810D01*
X6646524Y-10211952D02*
X6665571Y-10221476D01*
X6703667Y-10221476D01*
X6722714Y-10211952D01*
X6732238Y-10192905D01*
X6732238Y-10183381D01*
X6722714Y-10164333D01*
X6703667Y-10154810D01*
X6675095Y-10154810D01*
X6656048Y-10145286D01*
X6646524Y-10126238D01*
X6646524Y-10116714D01*
X6656048Y-10097667D01*
X6675095Y-10088143D01*
X6703667Y-10088143D01*
X6722714Y-10097667D01*
X6798905Y-10297667D02*
X6808428Y-10288143D01*
X6827476Y-10259571D01*
X6837000Y-10240524D01*
X6846524Y-10211952D01*
X6856048Y-10164333D01*
X6856048Y-10126238D01*
X6846524Y-10078619D01*
X6837000Y-10050048D01*
X6827476Y-10031000D01*
X6808428Y-10002429D01*
X6798905Y-9992905D01*
M02*
