%TF.GenerationSoftware,KiCad,Pcbnew,(6.0.10-0)*%
%TF.CreationDate,2023-01-20T21:59:07-08:00*%
%TF.ProjectId,mains-monitor,6d61696e-732d-46d6-9f6e-69746f722e6b,rev?*%
%TF.SameCoordinates,Original*%
%TF.FileFunction,Drillmap*%
%TF.FilePolarity,Positive*%
%FSLAX45Y45*%
G04 Gerber Fmt 4.5, Leading zero omitted, Abs format (unit mm)*
G04 Created by KiCad (PCBNEW (6.0.10-0)) date 2023-01-20 21:59:07*
%MOMM*%
%LPD*%
G01*
G04 APERTURE LIST*
%ADD10C,0.100000*%
%ADD11C,0.200000*%
G04 APERTURE END LIST*
D10*
X8001000Y-2540000D02*
X2413000Y-2540000D01*
X8001000Y-7366000D02*
G75*
G03*
X8382000Y-6985000I0J381000D01*
G01*
X2413000Y-2540000D02*
G75*
G03*
X2032000Y-2921000I0J-381000D01*
G01*
X8382000Y-6985000D02*
X8382000Y-2921000D01*
X2032000Y-6985000D02*
G75*
G03*
X2413000Y-7366000I381000J0D01*
G01*
X8382000Y-2921000D02*
G75*
G03*
X8001000Y-2540000I-381000J0D01*
G01*
X2032000Y-2921000D02*
X2032000Y-6985000D01*
X2413000Y-7366000D02*
X8001000Y-7366000D01*
D11*
D10*
X2150000Y-5411000D02*
X2250000Y-5511000D01*
X2250000Y-5411000D02*
X2150000Y-5511000D01*
X2150000Y-6427000D02*
X2250000Y-6527000D01*
X2250000Y-6427000D02*
X2150000Y-6527000D01*
X2850000Y-5411000D02*
X2950000Y-5511000D01*
X2950000Y-5411000D02*
X2850000Y-5511000D01*
X2850000Y-6427000D02*
X2950000Y-6527000D01*
X2950000Y-6427000D02*
X2850000Y-6527000D01*
D11*
X2284619Y-7681476D02*
X2284619Y-7481476D01*
X2332238Y-7481476D01*
X2360810Y-7491000D01*
X2379857Y-7510048D01*
X2389381Y-7529095D01*
X2398905Y-7567190D01*
X2398905Y-7595762D01*
X2389381Y-7633857D01*
X2379857Y-7652905D01*
X2360810Y-7671952D01*
X2332238Y-7681476D01*
X2284619Y-7681476D01*
X2484619Y-7681476D02*
X2484619Y-7548143D01*
X2484619Y-7586238D02*
X2494143Y-7567190D01*
X2503667Y-7557667D01*
X2522714Y-7548143D01*
X2541762Y-7548143D01*
X2608429Y-7681476D02*
X2608429Y-7548143D01*
X2608429Y-7481476D02*
X2598905Y-7491000D01*
X2608429Y-7500524D01*
X2617952Y-7491000D01*
X2608429Y-7481476D01*
X2608429Y-7500524D01*
X2732238Y-7681476D02*
X2713190Y-7671952D01*
X2703667Y-7652905D01*
X2703667Y-7481476D01*
X2837000Y-7681476D02*
X2817952Y-7671952D01*
X2808428Y-7652905D01*
X2808428Y-7481476D01*
X3065571Y-7681476D02*
X3065571Y-7481476D01*
X3132238Y-7624333D01*
X3198905Y-7481476D01*
X3198905Y-7681476D01*
X3379857Y-7681476D02*
X3379857Y-7576714D01*
X3370333Y-7557667D01*
X3351286Y-7548143D01*
X3313190Y-7548143D01*
X3294143Y-7557667D01*
X3379857Y-7671952D02*
X3360809Y-7681476D01*
X3313190Y-7681476D01*
X3294143Y-7671952D01*
X3284619Y-7652905D01*
X3284619Y-7633857D01*
X3294143Y-7614809D01*
X3313190Y-7605286D01*
X3360809Y-7605286D01*
X3379857Y-7595762D01*
X3475095Y-7548143D02*
X3475095Y-7748143D01*
X3475095Y-7557667D02*
X3494143Y-7548143D01*
X3532238Y-7548143D01*
X3551286Y-7557667D01*
X3560809Y-7567190D01*
X3570333Y-7586238D01*
X3570333Y-7643381D01*
X3560809Y-7662428D01*
X3551286Y-7671952D01*
X3532238Y-7681476D01*
X3494143Y-7681476D01*
X3475095Y-7671952D01*
X3656048Y-7662428D02*
X3665571Y-7671952D01*
X3656048Y-7681476D01*
X3646524Y-7671952D01*
X3656048Y-7662428D01*
X3656048Y-7681476D01*
X3656048Y-7557667D02*
X3665571Y-7567190D01*
X3656048Y-7576714D01*
X3646524Y-7567190D01*
X3656048Y-7557667D01*
X3656048Y-7576714D01*
D10*
X1927000Y-7961000D02*
X2027000Y-8061000D01*
X2027000Y-7961000D02*
X1927000Y-8061000D01*
D11*
X2389381Y-8101476D02*
X2275095Y-8101476D01*
X2332238Y-8101476D02*
X2332238Y-7901476D01*
X2313190Y-7930048D01*
X2294143Y-7949095D01*
X2275095Y-7958619D01*
X2475095Y-8082428D02*
X2484619Y-8091952D01*
X2475095Y-8101476D01*
X2465571Y-8091952D01*
X2475095Y-8082428D01*
X2475095Y-8101476D01*
X2608429Y-7901476D02*
X2627476Y-7901476D01*
X2646524Y-7911000D01*
X2656048Y-7920524D01*
X2665571Y-7939571D01*
X2675095Y-7977667D01*
X2675095Y-8025286D01*
X2665571Y-8063381D01*
X2656048Y-8082428D01*
X2646524Y-8091952D01*
X2627476Y-8101476D01*
X2608429Y-8101476D01*
X2589381Y-8091952D01*
X2579857Y-8082428D01*
X2570333Y-8063381D01*
X2560810Y-8025286D01*
X2560810Y-7977667D01*
X2570333Y-7939571D01*
X2579857Y-7920524D01*
X2589381Y-7911000D01*
X2608429Y-7901476D01*
X2798905Y-7901476D02*
X2817952Y-7901476D01*
X2837000Y-7911000D01*
X2846524Y-7920524D01*
X2856048Y-7939571D01*
X2865571Y-7977667D01*
X2865571Y-8025286D01*
X2856048Y-8063381D01*
X2846524Y-8082428D01*
X2837000Y-8091952D01*
X2817952Y-8101476D01*
X2798905Y-8101476D01*
X2779857Y-8091952D01*
X2770333Y-8082428D01*
X2760810Y-8063381D01*
X2751286Y-8025286D01*
X2751286Y-7977667D01*
X2760810Y-7939571D01*
X2770333Y-7920524D01*
X2779857Y-7911000D01*
X2798905Y-7901476D01*
X2989381Y-7901476D02*
X3008428Y-7901476D01*
X3027476Y-7911000D01*
X3037000Y-7920524D01*
X3046524Y-7939571D01*
X3056048Y-7977667D01*
X3056048Y-8025286D01*
X3046524Y-8063381D01*
X3037000Y-8082428D01*
X3027476Y-8091952D01*
X3008428Y-8101476D01*
X2989381Y-8101476D01*
X2970333Y-8091952D01*
X2960809Y-8082428D01*
X2951286Y-8063381D01*
X2941762Y-8025286D01*
X2941762Y-7977667D01*
X2951286Y-7939571D01*
X2960809Y-7920524D01*
X2970333Y-7911000D01*
X2989381Y-7901476D01*
X3141762Y-8101476D02*
X3141762Y-7968143D01*
X3141762Y-7987190D02*
X3151286Y-7977667D01*
X3170333Y-7968143D01*
X3198905Y-7968143D01*
X3217952Y-7977667D01*
X3227476Y-7996714D01*
X3227476Y-8101476D01*
X3227476Y-7996714D02*
X3237000Y-7977667D01*
X3256048Y-7968143D01*
X3284619Y-7968143D01*
X3303667Y-7977667D01*
X3313190Y-7996714D01*
X3313190Y-8101476D01*
X3408428Y-8101476D02*
X3408428Y-7968143D01*
X3408428Y-7987190D02*
X3417952Y-7977667D01*
X3437000Y-7968143D01*
X3465571Y-7968143D01*
X3484619Y-7977667D01*
X3494143Y-7996714D01*
X3494143Y-8101476D01*
X3494143Y-7996714D02*
X3503667Y-7977667D01*
X3522714Y-7968143D01*
X3551286Y-7968143D01*
X3570333Y-7977667D01*
X3579857Y-7996714D01*
X3579857Y-8101476D01*
X3970333Y-7891952D02*
X3798905Y-8149095D01*
X4227476Y-7901476D02*
X4246524Y-7901476D01*
X4265571Y-7911000D01*
X4275095Y-7920524D01*
X4284619Y-7939571D01*
X4294143Y-7977667D01*
X4294143Y-8025286D01*
X4284619Y-8063381D01*
X4275095Y-8082428D01*
X4265571Y-8091952D01*
X4246524Y-8101476D01*
X4227476Y-8101476D01*
X4208429Y-8091952D01*
X4198905Y-8082428D01*
X4189381Y-8063381D01*
X4179857Y-8025286D01*
X4179857Y-7977667D01*
X4189381Y-7939571D01*
X4198905Y-7920524D01*
X4208429Y-7911000D01*
X4227476Y-7901476D01*
X4379857Y-8082428D02*
X4389381Y-8091952D01*
X4379857Y-8101476D01*
X4370333Y-8091952D01*
X4379857Y-8082428D01*
X4379857Y-8101476D01*
X4513190Y-7901476D02*
X4532238Y-7901476D01*
X4551286Y-7911000D01*
X4560810Y-7920524D01*
X4570333Y-7939571D01*
X4579857Y-7977667D01*
X4579857Y-8025286D01*
X4570333Y-8063381D01*
X4560810Y-8082428D01*
X4551286Y-8091952D01*
X4532238Y-8101476D01*
X4513190Y-8101476D01*
X4494143Y-8091952D01*
X4484619Y-8082428D01*
X4475095Y-8063381D01*
X4465571Y-8025286D01*
X4465571Y-7977667D01*
X4475095Y-7939571D01*
X4484619Y-7920524D01*
X4494143Y-7911000D01*
X4513190Y-7901476D01*
X4646524Y-7901476D02*
X4770333Y-7901476D01*
X4703667Y-7977667D01*
X4732238Y-7977667D01*
X4751286Y-7987190D01*
X4760810Y-7996714D01*
X4770333Y-8015762D01*
X4770333Y-8063381D01*
X4760810Y-8082428D01*
X4751286Y-8091952D01*
X4732238Y-8101476D01*
X4675095Y-8101476D01*
X4656048Y-8091952D01*
X4646524Y-8082428D01*
X4865571Y-8101476D02*
X4903667Y-8101476D01*
X4922714Y-8091952D01*
X4932238Y-8082428D01*
X4951286Y-8053857D01*
X4960810Y-8015762D01*
X4960810Y-7939571D01*
X4951286Y-7920524D01*
X4941762Y-7911000D01*
X4922714Y-7901476D01*
X4884619Y-7901476D01*
X4865571Y-7911000D01*
X4856048Y-7920524D01*
X4846524Y-7939571D01*
X4846524Y-7987190D01*
X4856048Y-8006238D01*
X4865571Y-8015762D01*
X4884619Y-8025286D01*
X4922714Y-8025286D01*
X4941762Y-8015762D01*
X4951286Y-8006238D01*
X4960810Y-7987190D01*
X5132238Y-7968143D02*
X5132238Y-8101476D01*
X5084619Y-7891952D02*
X5037000Y-8034809D01*
X5160810Y-8034809D01*
X5227476Y-7901476D02*
X5227476Y-7939571D01*
X5303667Y-7901476D02*
X5303667Y-7939571D01*
X5598905Y-8177667D02*
X5589381Y-8168143D01*
X5570333Y-8139571D01*
X5560810Y-8120524D01*
X5551286Y-8091952D01*
X5541762Y-8044333D01*
X5541762Y-8006238D01*
X5551286Y-7958619D01*
X5560810Y-7930048D01*
X5570333Y-7911000D01*
X5589381Y-7882428D01*
X5598905Y-7872905D01*
X5760809Y-7968143D02*
X5760809Y-8101476D01*
X5713190Y-7891952D02*
X5665571Y-8034809D01*
X5789381Y-8034809D01*
X6017952Y-8101476D02*
X6017952Y-7901476D01*
X6103667Y-8101476D02*
X6103667Y-7996714D01*
X6094143Y-7977667D01*
X6075095Y-7968143D01*
X6046524Y-7968143D01*
X6027476Y-7977667D01*
X6017952Y-7987190D01*
X6227476Y-8101476D02*
X6208428Y-8091952D01*
X6198905Y-8082428D01*
X6189381Y-8063381D01*
X6189381Y-8006238D01*
X6198905Y-7987190D01*
X6208428Y-7977667D01*
X6227476Y-7968143D01*
X6256048Y-7968143D01*
X6275095Y-7977667D01*
X6284619Y-7987190D01*
X6294143Y-8006238D01*
X6294143Y-8063381D01*
X6284619Y-8082428D01*
X6275095Y-8091952D01*
X6256048Y-8101476D01*
X6227476Y-8101476D01*
X6408428Y-8101476D02*
X6389381Y-8091952D01*
X6379857Y-8072905D01*
X6379857Y-7901476D01*
X6560809Y-8091952D02*
X6541762Y-8101476D01*
X6503667Y-8101476D01*
X6484619Y-8091952D01*
X6475095Y-8072905D01*
X6475095Y-7996714D01*
X6484619Y-7977667D01*
X6503667Y-7968143D01*
X6541762Y-7968143D01*
X6560809Y-7977667D01*
X6570333Y-7996714D01*
X6570333Y-8015762D01*
X6475095Y-8034809D01*
X6646524Y-8091952D02*
X6665571Y-8101476D01*
X6703667Y-8101476D01*
X6722714Y-8091952D01*
X6732238Y-8072905D01*
X6732238Y-8063381D01*
X6722714Y-8044333D01*
X6703667Y-8034809D01*
X6675095Y-8034809D01*
X6656048Y-8025286D01*
X6646524Y-8006238D01*
X6646524Y-7996714D01*
X6656048Y-7977667D01*
X6675095Y-7968143D01*
X6703667Y-7968143D01*
X6722714Y-7977667D01*
X6798905Y-8177667D02*
X6808428Y-8168143D01*
X6827476Y-8139571D01*
X6837000Y-8120524D01*
X6846524Y-8091952D01*
X6856048Y-8044333D01*
X6856048Y-8006238D01*
X6846524Y-7958619D01*
X6837000Y-7930048D01*
X6827476Y-7911000D01*
X6808428Y-7882428D01*
X6798905Y-7872905D01*
X7160809Y-8177667D02*
X7151286Y-8168143D01*
X7132238Y-8139571D01*
X7122714Y-8120524D01*
X7113190Y-8091952D01*
X7103667Y-8044333D01*
X7103667Y-8006238D01*
X7113190Y-7958619D01*
X7122714Y-7930048D01*
X7132238Y-7911000D01*
X7151286Y-7882428D01*
X7160809Y-7872905D01*
X7237000Y-7968143D02*
X7237000Y-8101476D01*
X7237000Y-7987190D02*
X7246524Y-7977667D01*
X7265571Y-7968143D01*
X7294143Y-7968143D01*
X7313190Y-7977667D01*
X7322714Y-7996714D01*
X7322714Y-8101476D01*
X7446524Y-8101476D02*
X7427476Y-8091952D01*
X7417952Y-8082428D01*
X7408428Y-8063381D01*
X7408428Y-8006238D01*
X7417952Y-7987190D01*
X7427476Y-7977667D01*
X7446524Y-7968143D01*
X7475095Y-7968143D01*
X7494143Y-7977667D01*
X7503667Y-7987190D01*
X7513190Y-8006238D01*
X7513190Y-8063381D01*
X7503667Y-8082428D01*
X7494143Y-8091952D01*
X7475095Y-8101476D01*
X7446524Y-8101476D01*
X7570333Y-7968143D02*
X7646524Y-7968143D01*
X7598905Y-7901476D02*
X7598905Y-8072905D01*
X7608428Y-8091952D01*
X7627476Y-8101476D01*
X7646524Y-8101476D01*
X7865571Y-7968143D02*
X7865571Y-8168143D01*
X7865571Y-7977667D02*
X7884619Y-7968143D01*
X7922714Y-7968143D01*
X7941762Y-7977667D01*
X7951286Y-7987190D01*
X7960809Y-8006238D01*
X7960809Y-8063381D01*
X7951286Y-8082428D01*
X7941762Y-8091952D01*
X7922714Y-8101476D01*
X7884619Y-8101476D01*
X7865571Y-8091952D01*
X8075095Y-8101476D02*
X8056048Y-8091952D01*
X8046524Y-8072905D01*
X8046524Y-7901476D01*
X8237000Y-8101476D02*
X8237000Y-7996714D01*
X8227476Y-7977667D01*
X8208428Y-7968143D01*
X8170333Y-7968143D01*
X8151286Y-7977667D01*
X8237000Y-8091952D02*
X8217952Y-8101476D01*
X8170333Y-8101476D01*
X8151286Y-8091952D01*
X8141762Y-8072905D01*
X8141762Y-8053857D01*
X8151286Y-8034809D01*
X8170333Y-8025286D01*
X8217952Y-8025286D01*
X8237000Y-8015762D01*
X8303667Y-7968143D02*
X8379857Y-7968143D01*
X8332238Y-7901476D02*
X8332238Y-8072905D01*
X8341762Y-8091952D01*
X8360809Y-8101476D01*
X8379857Y-8101476D01*
X8522714Y-8091952D02*
X8503667Y-8101476D01*
X8465571Y-8101476D01*
X8446524Y-8091952D01*
X8437000Y-8072905D01*
X8437000Y-7996714D01*
X8446524Y-7977667D01*
X8465571Y-7968143D01*
X8503667Y-7968143D01*
X8522714Y-7977667D01*
X8532238Y-7996714D01*
X8532238Y-8015762D01*
X8437000Y-8034809D01*
X8703667Y-8101476D02*
X8703667Y-7901476D01*
X8703667Y-8091952D02*
X8684619Y-8101476D01*
X8646524Y-8101476D01*
X8627476Y-8091952D01*
X8617952Y-8082428D01*
X8608429Y-8063381D01*
X8608429Y-8006238D01*
X8617952Y-7987190D01*
X8627476Y-7977667D01*
X8646524Y-7968143D01*
X8684619Y-7968143D01*
X8703667Y-7977667D01*
X8779857Y-8177667D02*
X8789381Y-8168143D01*
X8808429Y-8139571D01*
X8817952Y-8120524D01*
X8827476Y-8091952D01*
X8837000Y-8044333D01*
X8837000Y-8006238D01*
X8827476Y-7958619D01*
X8817952Y-7930048D01*
X8808429Y-7911000D01*
X8789381Y-7882428D01*
X8779857Y-7872905D01*
M02*
