M48
; DRILL file {KiCad (6.0.10-0)} date Friday, January 20, 2023 at 09:59:05 PM
; FORMAT={-:-/ absolute / inch / decimal}
; #@! TF.CreationDate,2023-01-20T21:59:05-08:00
; #@! TF.GenerationSoftware,Kicad,Pcbnew,(6.0.10-0)
; #@! TF.FileFunction,Plated,1,2,PTH
FMAT,2
INCH
; #@! TA.AperFunction,Plated,PTH,ViaDrill
T1C0.0157
; #@! TA.AperFunction,Plated,PTH,ViaDrill
T2C0.0197
; #@! TA.AperFunction,Plated,PTH,ComponentDrill
T3C0.0197
; #@! TA.AperFunction,Plated,PTH,ComponentDrill
T4C0.0236
; #@! TA.AperFunction,Plated,PTH,ComponentDrill
T5C0.0315
; #@! TA.AperFunction,Plated,PTH,ComponentDrill
T6C0.0394
; #@! TA.AperFunction,Plated,PTH,ComponentDrill
T7C0.0433
; #@! TA.AperFunction,Plated,PTH,ComponentDrill
T8C0.0598
; #@! TA.AperFunction,Plated,PTH,ComponentDrill
T9C0.1260
%
G90
G05
T1
X2.86Y-2.12
T2
X0.87Y-1.955
X0.88Y-2.235
X0.88Y-2.345
X0.89Y-2.625
X0.89Y-2.735
X1.06Y-1.955
X1.07Y-2.345
X1.08Y-2.735
X1.25Y-1.955
X1.25Y-2.145
X1.25Y-2.355
X1.25Y-2.545
X1.25Y-2.735
X1.26Y-1.095
X1.26Y-1.195
X1.26Y-1.725
X1.26Y-1.845
X1.33Y-2.795
X1.43Y-1.095
X1.43Y-1.195
X1.43Y-1.295
X1.43Y-1.395
X1.43Y-1.505
X1.43Y-1.615
X1.43Y-1.725
X1.43Y-1.845
X1.45Y-2.845
X1.48Y-1.995
X1.48Y-2.4
X1.5Y-2.3
X1.5Y-2.7
X1.52Y-2.035
X1.53Y-2.435
X1.56Y-2.815
X1.6Y-1.095
X1.6Y-1.195
X1.6Y-1.295
X1.6Y-1.395
X1.6Y-1.505
X1.6Y-1.615
X1.6Y-1.725
X1.6Y-1.845
X1.6Y-2.575
X1.61Y-2.165
X1.62Y-2.395
X1.63Y-2.285
X1.7Y-2.395
X1.7Y-2.485
X1.77Y-1.095
X1.77Y-1.195
X1.77Y-1.295
X1.77Y-1.395
X1.77Y-1.505
X1.77Y-1.615
X1.77Y-1.725
X1.77Y-1.845
X1.8Y-2.395
X1.81Y-2.565
X1.85Y-2.175
X1.86Y-2.505
X1.88Y-2.085
X1.94Y-1.095
X1.94Y-1.195
X1.94Y-1.295
X1.94Y-1.395
X1.94Y-1.505
X1.94Y-1.615
X1.94Y-1.725
X1.94Y-1.845
X1.96Y-2.335
X1.97Y-2.125
X2.03Y-2.335
X2.04Y-2.665
X2.05Y-2.175
X2.08Y-2.095
X2.11Y-1.095
X2.11Y-1.195
X2.11Y-1.295
X2.11Y-1.395
X2.11Y-1.505
X2.11Y-1.615
X2.11Y-1.725
X2.11Y-1.845
X2.14Y-2.175
X2.15Y-2.305
X2.16Y-2.665
X2.17Y-2.475
X2.19Y-2.125
X2.28Y-1.195
X2.28Y-1.295
X2.28Y-1.395
X2.28Y-1.505
X2.28Y-1.615
X2.28Y-1.725
X2.28Y-1.845
X2.29Y-2.095
X2.3Y-2.165
X2.3Y-2.535
X2.42Y-1.285
X2.42Y-1.395
X2.42Y-1.505
X2.42Y-1.615
X2.42Y-1.725
X2.44Y-2.665
X2.45Y-2.365
X2.45Y-2.455
X2.53Y-1.505
X2.53Y-1.605
X2.53Y-1.715
X2.55Y-2.455
X2.56Y-2.665
X2.58Y-2.1
X2.62Y-2.265
X2.64Y-1.24
X2.79Y-2.605
X2.82Y-2.295
X2.82Y-2.415
X2.85Y-1.725
X2.86Y-1.275
X2.86Y-1.345
X2.89Y-1.605
X2.89Y-2.675
X2.9Y-2.495
X2.91Y-2.355
X2.94Y-1.275
X2.94Y-1.355
X2.98Y-1.545
X2.98Y-1.645
X2.98Y-1.785
X3.01Y-1.355
X3.03Y-2.545
X3.1Y-1.545
X3.1Y-1.645
X3.11Y-1.785
X3.19Y-1.605
X3.23Y-1.725
T3
X0.8555Y-1.7445
X0.8832Y-1.6777
X0.8832Y-1.8113
X0.95Y-1.65
X0.95Y-1.839
X1.0168Y-1.6777
X1.0168Y-1.8113
X1.0445Y-1.7445
X1.661Y-2.75
X1.6887Y-2.6832
X1.6887Y-2.8168
X1.7555Y-2.6555
X1.7555Y-2.8445
X1.8223Y-2.6832
X1.8223Y-2.8168
X1.85Y-2.75
X3.0555Y-1.15
X3.0555Y-2.75
X3.0832Y-1.0832
X3.0832Y-1.2168
X3.0832Y-2.6832
X3.0832Y-2.8168
X3.15Y-1.0555
X3.15Y-1.2445
X3.15Y-2.6555
X3.15Y-2.8445
X3.2168Y-1.0832
X3.2168Y-1.2168
X3.2168Y-2.6832
X3.2168Y-2.8168
X3.2445Y-1.15
X3.2445Y-2.75
T5
X1.6994Y-1.9504
X1.6994Y-2.2504
X1.7994Y-1.9504
X1.7994Y-2.2504
X1.8994Y-1.9504
X1.8994Y-2.2504
X1.95Y-2.45
X1.9994Y-1.9504
X1.9994Y-2.2504
X2.0994Y-1.9504
X2.0994Y-2.2504
X2.1994Y-1.9504
X2.1994Y-2.2504
X2.25Y-2.45
X2.2994Y-1.9504
X2.2994Y-2.2504
X2.35Y-2.45
X2.3994Y-1.9504
X2.3994Y-2.2504
X2.65Y-1.15
X2.65Y-2.45
X2.75Y-2.325
X2.75Y-2.45
X2.95Y-1.15
X3.05Y-2.325
X3.05Y-2.45
T6
X1.3267Y-1.4016
X1.3267Y-1.5984
X2.4842Y-1.1969
X2.4842Y-1.8031
X2.724Y-2.197
X2.824Y-2.197
X2.924Y-2.197
X3.024Y-2.197
X3.124Y-2.197
X3.224Y-2.197
T7
X1.972Y-2.6114
X1.972Y-2.7886
X2.228Y-2.6114
X2.228Y-2.7886
X2.372Y-2.6114
X2.372Y-2.7886
X2.628Y-2.6114
X2.628Y-2.7886
T8
X0.975Y-1.25
X0.975Y-1.45
T9
X0.95Y-1.7445
X1.7555Y-2.75
X3.15Y-1.15
X3.15Y-2.75
T4
G00X0.9173Y-2.0555
M15
G01X0.9409Y-2.0555
M16
G05
G00X0.9173Y-2.4555
M15
G01X0.9409Y-2.4555
M16
G05
G00X1.0354Y-2.0555
M15
G01X1.0591Y-2.0555
M16
G05
G00X1.0354Y-2.4555
M15
G01X1.0591Y-2.4555
M16
G05
G00X1.1929Y-2.0555
M15
G01X1.2165Y-2.0555
M16
G05
G00X1.1929Y-2.4555
M15
G01X1.2165Y-2.4555
M16
G05
G00X1.2402Y-2.2445
M15
G01X1.2638Y-2.2445
M16
G05
G00X1.2402Y-2.6445
M15
G01X1.2638Y-2.6445
M16
G05
T0
M30
