%TF.GenerationSoftware,KiCad,Pcbnew,(6.0.10-0)*%
%TF.CreationDate,2023-01-20T21:59:02-08:00*%
%TF.ProjectId,mains-monitor,6d61696e-732d-46d6-9f6e-69746f722e6b,rev?*%
%TF.SameCoordinates,Original*%
%TF.FileFunction,Soldermask,Top*%
%TF.FilePolarity,Negative*%
%FSLAX46Y46*%
G04 Gerber Fmt 4.6, Leading zero omitted, Abs format (unit mm)*
G04 Created by KiCad (PCBNEW (6.0.10-0)) date 2023-01-20 21:59:02*
%MOMM*%
%LPD*%
G01*
G04 APERTURE LIST*
G04 Aperture macros list*
%AMRoundRect*
0 Rectangle with rounded corners*
0 $1 Rounding radius*
0 $2 $3 $4 $5 $6 $7 $8 $9 X,Y pos of 4 corners*
0 Add a 4 corners polygon primitive as box body*
4,1,4,$2,$3,$4,$5,$6,$7,$8,$9,$2,$3,0*
0 Add four circle primitives for the rounded corners*
1,1,$1+$1,$2,$3*
1,1,$1+$1,$4,$5*
1,1,$1+$1,$6,$7*
1,1,$1+$1,$8,$9*
0 Add four rect primitives between the rounded corners*
20,1,$1+$1,$2,$3,$4,$5,0*
20,1,$1+$1,$4,$5,$6,$7,0*
20,1,$1+$1,$6,$7,$8,$9,0*
20,1,$1+$1,$8,$9,$2,$3,0*%
G04 Aperture macros list end*
%ADD10RoundRect,0.250000X0.650000X-0.325000X0.650000X0.325000X-0.650000X0.325000X-0.650000X-0.325000X0*%
%ADD11R,1.000000X2.500000*%
%ADD12R,1.800000X1.000000*%
%ADD13C,2.000000*%
%ADD14RoundRect,0.250000X-0.450000X0.262500X-0.450000X-0.262500X0.450000X-0.262500X0.450000X0.262500X0*%
%ADD15C,0.800000*%
%ADD16C,6.400000*%
%ADD17C,1.600000*%
%ADD18O,1.600000X1.600000*%
%ADD19RoundRect,0.250000X0.450000X-0.262500X0.450000X0.262500X-0.450000X0.262500X-0.450000X-0.262500X0*%
%ADD20RoundRect,0.250000X-0.650000X0.325000X-0.650000X-0.325000X0.650000X-0.325000X0.650000X0.325000X0*%
%ADD21R,1.700000X1.700000*%
%ADD22O,1.700000X1.700000*%
%ADD23C,1.000000*%
%ADD24O,2.000000X1.400000*%
%ADD25R,2.000000X1.400000*%
%ADD26R,3.000000X3.000000*%
%ADD27C,3.000000*%
%ADD28R,1.600000X1.600000*%
%ADD29RoundRect,0.250000X-0.250000X-0.475000X0.250000X-0.475000X0.250000X0.475000X-0.250000X0.475000X0*%
%ADD30R,2.300000X2.000000*%
%ADD31C,2.300000*%
G04 APERTURE END LIST*
D10*
%TO.C,C2*%
X64135000Y-57355000D03*
X64135000Y-54405000D03*
%TD*%
D11*
%TO.C,U2*%
X82690000Y-36850000D03*
X80690000Y-36850000D03*
X78690000Y-36850000D03*
X76690000Y-36850000D03*
X74690000Y-36850000D03*
X72690000Y-36850000D03*
X70690000Y-36850000D03*
X68690000Y-36850000D03*
D12*
X67190000Y-39450000D03*
X67190000Y-41450000D03*
X67190000Y-43450000D03*
X67190000Y-45450000D03*
X67190000Y-47450000D03*
X67190000Y-49450000D03*
D11*
X68690000Y-52050000D03*
X70690000Y-52050000D03*
X72690000Y-52050000D03*
X74690000Y-52050000D03*
X76690000Y-52050000D03*
X78690000Y-52050000D03*
X80690000Y-52050000D03*
X82690000Y-52050000D03*
%TD*%
D13*
%TO.C,SW1*%
X50090000Y-66330000D03*
X56590000Y-66330000D03*
X56590000Y-70830000D03*
X50090000Y-70830000D03*
%TD*%
D14*
%TO.C,R5*%
X36830000Y-62595000D03*
X36830000Y-64420000D03*
%TD*%
%TO.C,R7*%
X36830000Y-52435000D03*
X36830000Y-54260000D03*
%TD*%
D15*
%TO.C,H3*%
X78312944Y-71547056D03*
X80010000Y-72250000D03*
X80010000Y-67450000D03*
X81707056Y-68152944D03*
D16*
X80010000Y-69850000D03*
D15*
X77610000Y-69850000D03*
X78312944Y-68152944D03*
X81707056Y-71547056D03*
X82410000Y-69850000D03*
%TD*%
D17*
%TO.C,R11*%
X67310000Y-29210000D03*
D18*
X74930000Y-29210000D03*
%TD*%
D15*
%TO.C,H1*%
X22432944Y-42612944D03*
X25827056Y-42612944D03*
X21730000Y-44310000D03*
X26530000Y-44310000D03*
X25827056Y-46007056D03*
X22432944Y-46007056D03*
X24130000Y-41910000D03*
X24130000Y-46710000D03*
D16*
X24130000Y-44310000D03*
%TD*%
D19*
%TO.C,R4*%
X34290000Y-54252500D03*
X34290000Y-52427500D03*
%TD*%
D20*
%TO.C,C1*%
X64135000Y-49325000D03*
X64135000Y-52275000D03*
%TD*%
D14*
%TO.C,R8*%
X36830000Y-56245000D03*
X36830000Y-58070000D03*
%TD*%
D19*
%TO.C,R2*%
X34290000Y-64412500D03*
X34290000Y-62587500D03*
%TD*%
D21*
%TO.C,J5*%
X81890000Y-55805000D03*
D22*
X79350000Y-55805000D03*
X76810000Y-55805000D03*
X74270000Y-55805000D03*
X71730000Y-55805000D03*
X69190000Y-55805000D03*
%TD*%
D17*
%TO.C,R13*%
X69850000Y-59055000D03*
D18*
X77470000Y-59055000D03*
%TD*%
D23*
%TO.C,J3*%
X29000000Y-64770000D03*
X22000000Y-64770000D03*
D24*
X26600000Y-62370000D03*
X31800000Y-67170000D03*
X23600000Y-62370000D03*
D25*
X30600000Y-62370000D03*
%TD*%
D26*
%TO.C,J1*%
X24765000Y-31750000D03*
D27*
X24765000Y-36830000D03*
%TD*%
D17*
%TO.C,R9*%
X49530000Y-62230000D03*
D18*
X57150000Y-62230000D03*
%TD*%
D28*
%TO.C,U1*%
X60945000Y-49540000D03*
D18*
X58405000Y-49540000D03*
X55865000Y-49540000D03*
X53325000Y-49540000D03*
X50785000Y-49540000D03*
X48245000Y-49540000D03*
X45705000Y-49540000D03*
X43165000Y-49540000D03*
X43165000Y-57160000D03*
X45705000Y-57160000D03*
X48245000Y-57160000D03*
X50785000Y-57160000D03*
X53325000Y-57160000D03*
X55865000Y-57160000D03*
X58405000Y-57160000D03*
X60945000Y-57160000D03*
%TD*%
D29*
%TO.C,C4*%
X34610000Y-50165000D03*
X36510000Y-50165000D03*
%TD*%
D14*
%TO.C,R6*%
X36830000Y-66405000D03*
X36830000Y-68230000D03*
%TD*%
D23*
%TO.C,J4*%
X29000000Y-54610000D03*
X22000000Y-54610000D03*
D24*
X26600000Y-52210000D03*
X23600000Y-52210000D03*
X31800000Y-57010000D03*
D25*
X30600000Y-52210000D03*
%TD*%
D29*
%TO.C,C3*%
X34610000Y-60325000D03*
X36510000Y-60325000D03*
%TD*%
D17*
%TO.C,R10*%
X67310000Y-62230000D03*
D18*
X59690000Y-62230000D03*
%TD*%
D17*
%TO.C,R12*%
X69850000Y-62230000D03*
D18*
X77470000Y-62230000D03*
%TD*%
D19*
%TO.C,R1*%
X34290000Y-68222500D03*
X34290000Y-66397500D03*
%TD*%
D20*
%TO.C,C5*%
X68580000Y-31545000D03*
X68580000Y-34495000D03*
%TD*%
D19*
%TO.C,R3*%
X34290000Y-58062500D03*
X34290000Y-56237500D03*
%TD*%
D13*
%TO.C,SW2*%
X66750000Y-66330000D03*
X60250000Y-66330000D03*
X66750000Y-70830000D03*
X60250000Y-70830000D03*
%TD*%
D15*
%TO.C,H2*%
X42892944Y-68152944D03*
X44590000Y-67450000D03*
X44590000Y-72250000D03*
X46287056Y-71547056D03*
X46287056Y-68152944D03*
X42892944Y-71547056D03*
D16*
X44590000Y-69850000D03*
D15*
X42190000Y-69850000D03*
X46990000Y-69850000D03*
%TD*%
D30*
%TO.C,PS1*%
X33697500Y-35600000D03*
D31*
X33697500Y-40600000D03*
X63097500Y-30400000D03*
X63097500Y-45800000D03*
%TD*%
D15*
%TO.C,H4*%
X78312944Y-30907056D03*
X78312944Y-27512944D03*
X80010000Y-31610000D03*
D16*
X80010000Y-29210000D03*
D15*
X81707056Y-30907056D03*
X81707056Y-27512944D03*
X80010000Y-26810000D03*
X82410000Y-29210000D03*
X77610000Y-29210000D03*
%TD*%
M02*
