%TF.GenerationSoftware,KiCad,Pcbnew,(6.0.10-0)*%
%TF.CreationDate,2023-01-20T21:59:02-08:00*%
%TF.ProjectId,mains-monitor,6d61696e-732d-46d6-9f6e-69746f722e6b,rev?*%
%TF.SameCoordinates,Original*%
%TF.FileFunction,Soldermask,Bot*%
%TF.FilePolarity,Negative*%
%FSLAX46Y46*%
G04 Gerber Fmt 4.6, Leading zero omitted, Abs format (unit mm)*
G04 Created by KiCad (PCBNEW (6.0.10-0)) date 2023-01-20 21:59:02*
%MOMM*%
%LPD*%
G01*
G04 APERTURE LIST*
%ADD10C,2.000000*%
%ADD11C,0.800000*%
%ADD12C,6.400000*%
%ADD13C,1.600000*%
%ADD14O,1.600000X1.600000*%
%ADD15R,1.700000X1.700000*%
%ADD16O,1.700000X1.700000*%
%ADD17C,1.000000*%
%ADD18O,2.000000X1.400000*%
%ADD19R,2.000000X1.400000*%
%ADD20R,3.000000X3.000000*%
%ADD21C,3.000000*%
%ADD22R,1.600000X1.600000*%
%ADD23R,2.300000X2.000000*%
%ADD24C,2.300000*%
G04 APERTURE END LIST*
D10*
%TO.C,SW1*%
X50090000Y-66330000D03*
X56590000Y-66330000D03*
X56590000Y-70830000D03*
X50090000Y-70830000D03*
%TD*%
D11*
%TO.C,H3*%
X78312944Y-71547056D03*
X80010000Y-72250000D03*
X80010000Y-67450000D03*
X81707056Y-68152944D03*
D12*
X80010000Y-69850000D03*
D11*
X77610000Y-69850000D03*
X78312944Y-68152944D03*
X81707056Y-71547056D03*
X82410000Y-69850000D03*
%TD*%
D13*
%TO.C,R11*%
X67310000Y-29210000D03*
D14*
X74930000Y-29210000D03*
%TD*%
D11*
%TO.C,H1*%
X22432944Y-42612944D03*
X25827056Y-42612944D03*
X21730000Y-44310000D03*
X26530000Y-44310000D03*
X25827056Y-46007056D03*
X22432944Y-46007056D03*
X24130000Y-41910000D03*
X24130000Y-46710000D03*
D12*
X24130000Y-44310000D03*
%TD*%
D15*
%TO.C,J5*%
X81890000Y-55805000D03*
D16*
X79350000Y-55805000D03*
X76810000Y-55805000D03*
X74270000Y-55805000D03*
X71730000Y-55805000D03*
X69190000Y-55805000D03*
%TD*%
D13*
%TO.C,R13*%
X69850000Y-59055000D03*
D14*
X77470000Y-59055000D03*
%TD*%
D17*
%TO.C,J3*%
X29000000Y-64770000D03*
X22000000Y-64770000D03*
D18*
X26600000Y-62370000D03*
X31800000Y-67170000D03*
X23600000Y-62370000D03*
D19*
X30600000Y-62370000D03*
%TD*%
D20*
%TO.C,J1*%
X24765000Y-31750000D03*
D21*
X24765000Y-36830000D03*
%TD*%
D13*
%TO.C,R9*%
X49530000Y-62230000D03*
D14*
X57150000Y-62230000D03*
%TD*%
D22*
%TO.C,U1*%
X60945000Y-49540000D03*
D14*
X58405000Y-49540000D03*
X55865000Y-49540000D03*
X53325000Y-49540000D03*
X50785000Y-49540000D03*
X48245000Y-49540000D03*
X45705000Y-49540000D03*
X43165000Y-49540000D03*
X43165000Y-57160000D03*
X45705000Y-57160000D03*
X48245000Y-57160000D03*
X50785000Y-57160000D03*
X53325000Y-57160000D03*
X55865000Y-57160000D03*
X58405000Y-57160000D03*
X60945000Y-57160000D03*
%TD*%
D17*
%TO.C,J4*%
X29000000Y-54610000D03*
X22000000Y-54610000D03*
D18*
X26600000Y-52210000D03*
X23600000Y-52210000D03*
X31800000Y-57010000D03*
D19*
X30600000Y-52210000D03*
%TD*%
D13*
%TO.C,R10*%
X67310000Y-62230000D03*
D14*
X59690000Y-62230000D03*
%TD*%
D13*
%TO.C,R12*%
X69850000Y-62230000D03*
D14*
X77470000Y-62230000D03*
%TD*%
D10*
%TO.C,SW2*%
X66750000Y-66330000D03*
X60250000Y-66330000D03*
X66750000Y-70830000D03*
X60250000Y-70830000D03*
%TD*%
D11*
%TO.C,H2*%
X42892944Y-68152944D03*
X44590000Y-67450000D03*
X44590000Y-72250000D03*
X46287056Y-71547056D03*
X46287056Y-68152944D03*
X42892944Y-71547056D03*
D12*
X44590000Y-69850000D03*
D11*
X42190000Y-69850000D03*
X46990000Y-69850000D03*
%TD*%
D23*
%TO.C,PS1*%
X33697500Y-35600000D03*
D24*
X33697500Y-40600000D03*
X63097500Y-30400000D03*
X63097500Y-45800000D03*
%TD*%
D11*
%TO.C,H4*%
X78312944Y-30907056D03*
X78312944Y-27512944D03*
X80010000Y-31610000D03*
D12*
X80010000Y-29210000D03*
D11*
X81707056Y-30907056D03*
X81707056Y-27512944D03*
X80010000Y-26810000D03*
X82410000Y-29210000D03*
X77610000Y-29210000D03*
%TD*%
M02*
